<?xml version="1.0" encoding="utf-8"?>
<!-- Generator: Adobe Illustrator 21.1.0, SVG Export Plug-In . SVG Version: 6.00 Build 0)  -->
<svg version="1.1" id="Layer_1" xmlns="http://www.w3.org/2000/svg" xmlns:xlink="http://www.w3.org/1999/xlink" x="0px" y="0px"
	 viewBox="0 0 1400 980" style="enable-background:new 0 0 1400 980;" xml:space="preserve">
<style type="text/css">
	.st0{fill:#E99E12;}
	.st1{fill:#E85A13;}
	.st2{fill:#FFDB83;}
	.st3{fill:#FFFEFF;}
	.st4{fill:#EDBF5A;}
	.st5{fill:#C14610;}
	.st6{fill:#B7410D;}
	.st7{fill:#EFBA43;}
	.st8{fill:#BC420C;}
	.st9{fill:#FFFFFF;}
</style>
<g>
	<g>
		<g>
			<g>
				<g>
					<rect x="124.5" y="92.9" class="st0" width="7.5" height="156.3"/>
					<rect x="118.7" y="80.7" class="st1" width="18.6" height="14.9"/>
				</g>
				<g>
					<rect x="179.3" y="92.9" class="st0" width="7.5" height="156.3"/>
					<rect x="173.5" y="80.7" class="st1" width="18.6" height="14.9"/>
				</g>
			</g>
			<rect x="112.4" y="248.7" class="st1" width="86" height="16.8"/>
		</g>
		<g>
			<g>
				<g>
					<rect x="224.1" y="92.9" class="st0" width="7.5" height="156.3"/>
					<rect x="218.3" y="80.7" class="st1" width="18.6" height="14.9"/>
				</g>
				<g>
					<rect x="278.9" y="92.9" class="st0" width="7.5" height="156.3"/>
					<rect x="273.1" y="80.7" class="st1" width="18.6" height="14.9"/>
				</g>
			</g>
			<rect x="212" y="248.7" class="st1" width="86" height="16.8"/>
		</g>
		<path class="st2" d="M52.1,69.1L52.1,69.1c-4.4,0-8,3.6-8,8v261.3c0,1.9,1.6,3.5,3.5,3.5h9c1.9,0,3.5-1.6,3.5-3.5V77.1
			C60.1,72.7,56.5,69.1,52.1,69.1z"/>
		<path class="st2" d="M351.1,69.1L351.1,69.1c4.4,0,8,3.6,8,8v261.3c0,1.9-1.6,3.5-3.5,3.5h-9c-1.9,0-3.5-1.6-3.5-3.5V77.1
			C343.1,72.7,346.7,69.1,351.1,69.1z"/>
		<path class="st2" d="M346.6,96h-30.8c-6.3,0-12.3-2.8-16.4-7.7c-2.7-3.2-6.7-5.1-10.9-5.1H114.7c-4.2,0-8.2,1.9-10.9,5.1
			c-4.1,4.9-10,7.7-16.4,7.7H56.6v-7.8h30.8c4,0,7.8-1.8,10.4-4.9c4.2-5,10.3-7.9,16.8-7.9h173.9c6.5,0,12.7,2.9,16.8,7.9
			c2.6,3.1,6.4,4.9,10.4,4.9h30.8V96z"/>
	</g>
	<g>
		<rect x="56.2" y="550.9" class="st2" width="129" height="172.9"/>
		<rect x="168.1" y="723.8" class="st1" width="17.1" height="185.9"/>
		<rect x="56.2" y="723.8" class="st1" width="17.1" height="185.9"/>
		<rect x="81.2" y="577.9" class="st3" width="79" height="104"/>
		<g>
			<rect x="68.4" y="745.7" class="st1" width="104.7" height="15.3"/>
			<rect x="68.4" y="787" class="st1" width="104.7" height="15.3"/>
			<rect x="68.4" y="828.3" class="st1" width="104.7" height="15.3"/>
			<rect x="68.4" y="869.5" class="st1" width="104.7" height="15.3"/>
		</g>
		<g>
			<rect x="56.2" y="550.9" class="st4" width="129" height="15.6"/>
		</g>
		<rect x="185.4" y="697.2" class="st1" width="262.6" height="22"/>
		<rect x="185.4" y="579" class="st1" width="262.6" height="22"/>
		<rect x="185.4" y="697.2" class="st5" width="13.3" height="22"/>
		<rect x="185.4" y="579" class="st5" width="13.3" height="22"/>
		<rect x="434.7" y="697.2" class="st5" width="13.3" height="22"/>
		<rect x="434.7" y="579" class="st5" width="13.3" height="22"/>
		<g>
			<path class="st2" d="M244.8,564.4H229c-6.3,0-11.3,5.1-11.3,11.3v144.1c0,6.3,5.1,11.3,11.3,11.3h15.8c6.3,0,11.3-5.1,11.3-11.3
				V575.7C256.1,569.5,251.1,564.4,244.8,564.4z"/>
			<g>
				<circle class="st1" cx="226.8" cy="589.3" r="4.9"/>
				<circle class="st1" cx="247.4" cy="589.3" r="4.9"/>
			</g>
			<g>
				<circle class="st1" cx="226.8" cy="709.1" r="4.9"/>
				<circle class="st1" cx="247.4" cy="709.1" r="4.9"/>
			</g>
		</g>
		<g>
			<path class="st2" d="M297,564.4h-15.8c-6.3,0-11.3,5.1-11.3,11.3v144.1c0,6.3,5.1,11.3,11.3,11.3H297c6.3,0,11.3-5.1,11.3-11.3
				V575.7C308.4,569.5,303.3,564.4,297,564.4z"/>
			<g>
				<circle class="st1" cx="279" cy="589.3" r="4.9"/>
				<circle class="st1" cx="299.6" cy="589.3" r="4.9"/>
			</g>
			<g>
				<circle class="st1" cx="279" cy="709.1" r="4.9"/>
				<circle class="st1" cx="299.6" cy="709.1" r="4.9"/>
			</g>
		</g>
		<g>
			<path class="st2" d="M349.3,564.4h-15.8c-6.3,0-11.3,5.1-11.3,11.3v144.1c0,6.3,5.1,11.3,11.3,11.3h15.8
				c6.3,0,11.3-5.1,11.3-11.3V575.7C360.6,569.5,355.6,564.4,349.3,564.4z"/>
			<g>
				<circle class="st1" cx="331.3" cy="589.3" r="4.9"/>
				<circle class="st1" cx="351.9" cy="589.3" r="4.9"/>
			</g>
			<g>
				<circle class="st1" cx="331.3" cy="709.1" r="4.9"/>
				<circle class="st1" cx="351.9" cy="709.1" r="4.9"/>
			</g>
		</g>
		<g>
			<path class="st2" d="M401.5,564.4h-15.8c-6.3,0-11.3,5.1-11.3,11.3v144.1c0,6.3,5.1,11.3,11.3,11.3h15.8
				c6.3,0,11.3-5.1,11.3-11.3V575.7C412.9,569.5,407.8,564.4,401.5,564.4z"/>
			<g>
				<circle class="st1" cx="383.5" cy="589.3" r="4.9"/>
				<circle class="st1" cx="404.1" cy="589.3" r="4.9"/>
			</g>
			<g>
				<circle class="st1" cx="383.5" cy="709.1" r="4.9"/>
				<circle class="st1" cx="404.1" cy="709.1" r="4.9"/>
			</g>
		</g>
		<rect x="448" y="554.6" class="st1" width="19.3" height="353.8"/>
		<path class="st2" d="M467.7,577.5L467.7,577.5l0,140.9h40.8l-10.3-113.1C496.8,589.6,483.6,577.5,467.7,577.5z"/>
		<path class="st2" d="M508.5,718.5h56l55,176.5h81.1c9.9,0,17.9-8,17.9-17.9l0,0c0-9.9-8-17.9-17.9-17.9h-52.8l-53.2-183.6H503
			L508.5,718.5z"/>
		<rect x="630.2" y="894.9" class="st1" width="18.9" height="13.6"/>
		<rect x="683.7" y="894.9" class="st1" width="18.9" height="13.6"/>
		<path class="st1" d="M90.6,467.4l-47.9,68.2c-5.9,8.4,0.1,19.9,10.3,19.9h134.8c10.3,0,16.3-11.7,10.2-20.1l-50-68.5
			C133.8,447.3,104.6,447.5,90.6,467.4z"/>
	</g>
	<g>
		<path class="st6" d="M463.8,293.8v-41.7c0-68.9,55.9-124.8,124.8-124.8h0c68.9,0,124.8,55.9,124.8,124.8v41.7h25.2v-42.1
			c0-82.9-67.2-150.1-150.1-150.1h0c-82.9,0-150.1,67.2-150.1,150.1v42.1H463.8z"/>
		<g>
			<path class="st2" d="M548.7,251.5h-91.2c-5,0-9,4.1-9,9l0,0c0,5,4.1,9,9,9h91.2c5,0,9-4.1,9-9l0,0
				C557.7,255.6,553.6,251.5,548.7,251.5z"/>
			<path class="st7" d="M557.7,259.6c-0.5-4.5-4.3-8.1-9-8.1h-91.2c-4.7,0-8.5,3.6-9,8.1H557.7z"/>
		</g>
		<g>
			<path class="st2" d="M554.9,215h-91.2c-5,0-9,4.1-9,9v0c0,5,4.1,9,9,9h91.2c5,0,9-4.1,9-9v0C563.9,219.1,559.8,215,554.9,215z"/>
			<path class="st7" d="M563.8,223.1c-0.5-4.5-4.3-8.1-9-8.1h-91.2c-4.7,0-8.5,3.6-9,8.1H563.8z"/>
		</g>
		<g>
			<path class="st2" d="M569.7,173.1h-91.2c-5,0-9,4.1-9,9v0c0,5,4.1,9,9,9h91.2c5,0,9-4.1,9-9v0
				C578.7,177.1,574.6,173.1,569.7,173.1z"/>
			<path class="st7" d="M578.6,181.2c-0.5-4.5-4.3-8.1-9-8.1h-91.2c-4.7,0-8.5,3.6-9,8.1H578.6z"/>
		</g>
		<g>
			<path class="st2" d="M604.7,134.6h-91.2c-5,0-9,4.1-9,9v0c0,5,4.1,9,9,9h91.2c5,0,9-4.1,9-9v0
				C613.7,138.6,609.7,134.6,604.7,134.6z"/>
			<path class="st7" d="M613.7,142.7c-0.5-4.5-4.3-8.1-9-8.1h-91.2c-4.7,0-8.5,3.6-9,8.1H613.7z"/>
		</g>
		<g>
			<path class="st2" d="M764.8,134.6h-91.2c-5,0-9,4.1-9,9v0c0,5,4.1,9,9,9h91.2c5,0,9-4.1,9-9v0
				C773.8,138.6,769.8,134.6,764.8,134.6z"/>
			<path class="st7" d="M773.8,142.7c-0.5-4.5-4.3-8.1-9-8.1h-91.2c-4.7,0-8.5,3.6-9,8.1H773.8z"/>
		</g>
		<g>
			<path class="st2" d="M691.3,101.1h-91.2c-5,0-9,4.1-9,9v0c0,5,4.1,9,9,9h91.2c5,0,9-4.1,9-9v0
				C700.3,105.2,696.3,101.1,691.3,101.1z"/>
			<path class="st7" d="M700.3,109.3c-0.5-4.5-4.3-8.1-9-8.1h-91.2c-4.7,0-8.5,3.6-9,8.1H700.3z"/>
		</g>
		<g>
			<path class="st2" d="M808.9,173.1h-91.2c-5,0-9,4.1-9,9v0c0,5,4.1,9,9,9h91.2c5,0,9-4.1,9-9v0
				C817.9,177.1,813.9,173.1,808.9,173.1z"/>
			<path class="st7" d="M817.9,181.2c-0.5-4.5-4.3-8.1-9-8.1h-91.2c-4.7,0-8.5,3.6-9,8.1H817.9z"/>
		</g>
		<g>
			<path class="st2" d="M820.5,215h-91.2c-5,0-9,4.1-9,9v0c0,5,4.1,9,9,9h91.2c5,0,9-4.1,9-9v0C829.5,219.1,825.5,215,820.5,215z"/>
			<path class="st7" d="M829.5,223.1c-0.5-4.5-4.3-8.1-9-8.1h-91.2c-4.7,0-8.5,3.6-9,8.1H829.5z"/>
		</g>
		<g>
			<path class="st2" d="M825.6,251.5h-91.2c-5,0-9,4.1-9,9l0,0c0,5,4.1,9,9,9h91.2c5,0,9-4.1,9-9l0,0
				C834.6,255.6,830.6,251.5,825.6,251.5z"/>
			<path class="st7" d="M834.6,259.6c-0.5-4.5-4.3-8.1-9-8.1h-91.2c-4.7,0-8.5,3.6-9,8.1H834.6z"/>
		</g>
		<path class="st1" d="M568.7,293.8v-41.7c0-68.9,55.9-124.8,124.8-124.8h0c68.9,0,124.8,55.9,124.8,124.8v41.7h25.2v-42.1
			c0-82.9-67.2-150.1-150.1-150.1h0c-82.9,0-150.1,67.2-150.1,150.1v42.1H568.7z"/>
	</g>
	<g>
		<g>
			<g>
				<path class="st1" d="M1342.1,835.6L717.6,697.9c-6.8-1.5-13.6,2.8-15,9.6l0,0c-1.5,6.8,2.8,13.6,9.6,15l624.4,137.7
					c6.8,1.5,13.6-2.8,15-9.6l0,0C1353.2,843.9,1348.8,837.1,1342.1,835.6z"/>
				<path class="st0" d="M1074.3,906H980V771.4c0-26.1,21.1-47.2,47.2-47.2l0,0c26.1,0,47.2,21.1,47.2,47.2V906z"/>
				<circle class="st1" cx="1027.1" cy="780.3" r="21.9"/>
			</g>
			<path class="st2" d="M1116.4,871.2H932.3c-17,0-30.8,13.8-30.8,30.8v33h245.8v-33C1147.2,885,1133.5,871.2,1116.4,871.2z"/>
			<path class="st4" d="M1144.9,890.2c-4.6-11.1-15.6-18.9-28.4-18.9H932.3c-12.8,0-23.8,7.8-28.4,18.9H1144.9z"/>
		</g>
		<path class="st1" d="M753.1,711.6l4.4-25.2c0.9-5.4,6.1-9.1,11.6-8.1l16.2,2.8c5.4,0.9,9.1,6.1,8.1,11.6l-4.4,25.2l11.2,2
			l5.8-33.3c1.8-10-5-19.6-15-21.4l-21.9-3.9c-10-1.8-19.6,5-21.4,15l-5.8,33.3L753.1,711.6z"/>
		<path class="st1" d="M1267.6,830.9l4.4-25.2c0.9-5.4,6.1-9.1,11.6-8.1l16.2,2.8c5.4,0.9,9.1,6.1,8.1,11.6l-4.4,25.2l11.2,2
			l5.8-33.3c1.8-10-5-19.6-15-21.4l-21.9-3.9c-10-1.8-19.6,5-21.4,15l-5.8,33.3L1267.6,830.9z"/>
	</g>
	<g>
		<g>
			<rect x="570.5" y="421.4" class="st7" width="107.7" height="109.7"/>
			<rect x="565.5" y="406.9" class="st1" width="120.1" height="14.5"/>
			<path class="st1" d="M677.3,413.1H577v-7.8c0-27.7,22.5-50.2,50.2-50.2c27.7,0,50.2,22.5,50.2,50.2V413.1z M581.4,408.7H673v-3.4
				c0-25.3-20.6-45.8-45.8-45.8c-25.3,0-45.8,20.6-45.8,45.8V408.7z"/>
			<path class="st1" d="M651,370c-7-4.8-15.3-7.3-23.8-7.3c-7.9,0-15.7,2.2-22.4,6.3l-5.7-9.2c8.4-5.2,18.1-8,28.1-8
				c10.7,0,21,3.2,29.9,9.1L651,370z"/>
		</g>
		<g>
			<path class="st1" d="M861.7,486.9L861.7,486.9c-16.1-12.8-18.8-36.1-6-52.2l21.4-27l58.2,46.2l-21.4,27
				C901.1,497,877.8,499.7,861.7,486.9z"/>
			<path class="st7" d="M962.4,360L962.4,360c-3.5-2.8-8.5-2.2-11.3,1.3l-60.9,76.6l12.6,10l60.9-76.6
				C966.5,367.8,965.9,362.7,962.4,360z"/>
		</g>
		<path class="st1" d="M997.7,530.9H558.3c-10.1,0-18.2,8.2-18.2,18.2v8c0,10.1,8.2,18.2,18.2,18.2h439.4c10.1,0,18.2-8.2,18.2-18.2
			v-8C1015.9,539,1007.8,530.9,997.7,530.9z"/>
		<path class="st2" d="M893.7,468.4h-4.3c-13-12.3-30.5-19.8-49.7-19.8H670.8c-40,0-72.4,32.4-72.4,72.4v10.6h44.8h268.8h44.8v0
			C956.9,496.7,928.6,468.4,893.7,468.4z"/>
		<circle class="st7" cx="766.1" cy="481.2" r="5.8"/>
		<circle class="st7" cx="892.1" cy="508.7" r="5.1"/>
		<circle class="st7" cx="691.1" cy="498.9" r="6.2"/>
		<circle class="st7" cx="700.1" cy="468.9" r="0.7"/>
		<circle class="st7" cx="649.1" cy="509.1" r="12"/>
		<circle class="st7" cx="788.1" cy="498.2" r="4"/>
		<circle class="st7" cx="833.8" cy="477.9" r="6.2"/>
	</g>
	<g>
		<g>
			<g>
				<rect x="1225.7" y="76.8" class="st2" width="3.3" height="195"/>
				<rect x="1242.4" y="76.8" class="st2" width="3.3" height="195"/>
				<rect x="1259.1" y="76.8" class="st2" width="3.3" height="195"/>
				<rect x="1275.7" y="76.8" class="st2" width="3.3" height="195"/>
				<rect x="1292.4" y="76.8" class="st2" width="3.3" height="195"/>
				<rect x="1309.1" y="76.8" class="st2" width="3.3" height="195"/>
			</g>
			<g>
				<rect x="1210.6" y="172.2" class="st2" width="127.5" height="3.3"/>
				<rect x="1210.6" y="155.5" class="st2" width="127.5" height="3.3"/>
				<rect x="1210.6" y="138.8" class="st2" width="127.5" height="3.3"/>
				<rect x="1210.6" y="122.2" class="st2" width="127.5" height="3.3"/>
				<rect x="1210.6" y="105.5" class="st2" width="127.5" height="3.3"/>
				<rect x="1210.6" y="88.8" class="st2" width="127.5" height="3.3"/>
			</g>
		</g>
		<g>
			<rect x="1211.1" y="255.5" class="st2" width="122.5" height="3.3"/>
			<rect x="1211.1" y="238.8" class="st2" width="122.5" height="3.3"/>
			<rect x="1211.1" y="222.2" class="st2" width="122.5" height="3.3"/>
			<rect x="1211.1" y="205.5" class="st2" width="122.5" height="3.3"/>
			<rect x="1211.1" y="188.8" class="st2" width="122.5" height="3.3"/>
		</g>
		<g>
			<rect x="895.4" y="44.9" class="st1" width="15.9" height="262.5"/>
			<g>
				<rect x="911.3" y="61.8" class="st2" width="62.6" height="14.6"/>
				<rect x="911.3" y="91.1" class="st2" width="62.6" height="14.6"/>
				<rect x="911.3" y="120.4" class="st2" width="62.6" height="14.6"/>
				<rect x="911.3" y="149.7" class="st2" width="62.6" height="14.6"/>
				<rect x="911.3" y="179" class="st2" width="62.6" height="14.6"/>
				<polygon class="st2" points="973.9,222.9 940.4,222.9 911.3,222.9 911.3,208.3 973.9,208.3 				"/>
				<rect x="911.3" y="237.6" class="st2" width="62.6" height="14.6"/>
				<rect x="911.3" y="266.9" class="st2" width="62.6" height="14.6"/>
			</g>
			<g>
				<rect x="911.3" y="61.8" class="st7" width="10.5" height="14.6"/>
				<rect x="911.3" y="91.1" class="st7" width="10.5" height="14.6"/>
				<rect x="911.3" y="120.4" class="st7" width="10.5" height="14.6"/>
				<rect x="911.3" y="149.7" class="st7" width="10.5" height="14.6"/>
				<rect x="911.3" y="179" class="st7" width="10.5" height="14.6"/>
				<rect x="911.3" y="208.3" class="st7" width="10.5" height="14.6"/>
				<rect x="911.3" y="237.6" class="st7" width="10.5" height="14.6"/>
				<rect x="911.3" y="266.9" class="st7" width="10.5" height="14.6"/>
			</g>
			
				<rect x="974.2" y="44.9" transform="matrix(-1 -4.489399e-11 4.489399e-11 -1 1964.2438 352.3715)" class="st1" width="15.9" height="262.5"/>
			<g>
				<rect x="963.7" y="61.8" class="st7" width="10.5" height="14.6"/>
				<rect x="963.7" y="91.1" class="st7" width="10.5" height="14.6"/>
				<rect x="963.7" y="120.4" class="st7" width="10.5" height="14.6"/>
				<rect x="963.7" y="149.7" class="st7" width="10.5" height="14.6"/>
				<rect x="963.7" y="179" class="st7" width="10.5" height="14.6"/>
				<rect x="963.7" y="208.3" class="st7" width="10.5" height="14.6"/>
				<rect x="963.7" y="237.6" class="st7" width="10.5" height="14.6"/>
				<rect x="963.7" y="266.9" class="st7" width="10.5" height="14.6"/>
			</g>
		</g>
		<rect x="989.2" y="64.7" class="st1" width="370.5" height="12.3"/>
		
			<rect x="1218.1" y="186" transform="matrix(6.123234e-17 -1 1 6.123234e-17 1141.2643 1525.5225)" class="st1" width="230.6" height="12.3"/>
		
			<rect x="1093.1" y="186" transform="matrix(6.123234e-17 -1 1 6.123234e-17 1016.2643 1400.5225)" class="st1" width="230.6" height="12.3"/>
		
			<rect x="983.1" y="186" transform="matrix(6.123234e-17 -1 1 6.123234e-17 906.2643 1290.5225)" class="st1" width="230.6" height="12.3"/>
		<g>
			<rect x="1012.6" y="77.2" class="st2" width="4.3" height="45.4"/>
			<path class="st2" d="M1014.6,119.4c-9.9,0-18,8.1-18,18c0,9.9,8.1,18,18,18c9.9,0,18-8.1,18-18
				C1032.6,127.5,1024.5,119.4,1014.6,119.4z M1014.6,151.1c-7.6,0-13.7-6.1-13.7-13.7c0-7.6,6.1-13.7,13.7-13.7
				c7.6,0,13.7,6.1,13.7,13.7C1028.3,145,1022.2,151.1,1014.6,151.1z"/>
		</g>
		<g>
			<rect x="1062.4" y="77.2" class="st2" width="4.3" height="45.4"/>
			<path class="st2" d="M1064.4,119.4c-9.9,0-18,8.1-18,18c0,9.9,8.1,18,18,18c9.9,0,18-8.1,18-18
				C1082.4,127.5,1074.3,119.4,1064.4,119.4z M1064.4,151.1c-7.6,0-13.7-6.1-13.7-13.7c0-7.6,6.1-13.7,13.7-13.7
				c7.6,0,13.7,6.1,13.7,13.7C1078.1,145,1072,151.1,1064.4,151.1z"/>
		</g>
		<g>
			<rect x="1012.6" y="77.2" class="st7" width="4.3" height="10.8"/>
		</g>
		<g>
			<rect x="1062.4" y="77.2" class="st7" width="4.3" height="10.8"/>
		</g>
		<rect x="1104.5" y="133.8" class="st1" width="98" height="9.5"/>
		<rect x="1104.5" y="184.3" class="st1" width="98" height="9.5"/>
		<rect x="1104.5" y="239.3" class="st1" width="98" height="9.5"/>
		<rect x="1194.6" y="133.8" class="st8" width="7.9" height="9.5"/>
		<rect x="1194.6" y="184.3" class="st8" width="7.9" height="9.5"/>
		<rect x="1194.6" y="239.3" class="st8" width="7.9" height="9.5"/>
		<rect x="1104.5" y="133.8" class="st8" width="7.9" height="9.5"/>
		<rect x="1104.5" y="184.3" class="st8" width="7.9" height="9.5"/>
		<rect x="1104.5" y="239.3" class="st8" width="7.9" height="9.5"/>
		<g>
			<g>
				<circle class="st1" cx="1227" cy="90.5" r="4.8"/>
				<circle class="st1" cx="1227" cy="107.2" r="4.8"/>
				<circle class="st1" cx="1227" cy="123.9" r="4.8"/>
				<circle class="st1" cx="1227" cy="140.7" r="4.8"/>
				<circle class="st1" cx="1227" cy="157.4" r="4.8"/>
				<circle class="st1" cx="1227" cy="174.2" r="4.8"/>
				<circle class="st1" cx="1227" cy="190.9" r="4.8"/>
				<circle class="st1" cx="1227" cy="207.6" r="4.8"/>
				<circle class="st1" cx="1227" cy="224.4" r="4.8"/>
				<circle class="st1" cx="1227" cy="241.1" r="4.8"/>
				<circle class="st1" cx="1227" cy="257.8" r="4.8"/>
			</g>
			<g>
				<circle class="st1" cx="1243.8" cy="90.5" r="4.8"/>
				<circle class="st1" cx="1243.8" cy="107.2" r="4.8"/>
				<circle class="st1" cx="1243.8" cy="123.9" r="4.8"/>
				<circle class="st1" cx="1243.8" cy="140.7" r="4.8"/>
				<circle class="st1" cx="1243.8" cy="157.4" r="4.8"/>
				<circle class="st1" cx="1243.8" cy="174.2" r="4.8"/>
				<circle class="st1" cx="1243.8" cy="190.9" r="4.8"/>
				<circle class="st1" cx="1243.8" cy="207.6" r="4.8"/>
				<circle class="st1" cx="1243.8" cy="224.4" r="4.8"/>
				<circle class="st1" cx="1243.8" cy="241.1" r="4.8"/>
				<circle class="st1" cx="1243.8" cy="257.8" r="4.8"/>
			</g>
			<g>
				<circle class="st1" cx="1260.6" cy="90.5" r="4.8"/>
				<circle class="st1" cx="1260.6" cy="107.2" r="4.8"/>
				<circle class="st1" cx="1260.6" cy="123.9" r="4.8"/>
				<circle class="st1" cx="1260.6" cy="140.7" r="4.8"/>
				<circle class="st1" cx="1260.6" cy="157.4" r="4.8"/>
				<circle class="st1" cx="1260.6" cy="174.2" r="4.8"/>
				<circle class="st1" cx="1260.6" cy="190.9" r="4.8"/>
				<circle class="st1" cx="1260.6" cy="207.6" r="4.8"/>
				<circle class="st1" cx="1260.6" cy="224.4" r="4.8"/>
				<circle class="st1" cx="1260.6" cy="241.1" r="4.8"/>
				<circle class="st1" cx="1260.6" cy="257.8" r="4.8"/>
			</g>
			<g>
				<circle class="st1" cx="1277.4" cy="90.5" r="4.8"/>
				<circle class="st1" cx="1277.4" cy="107.2" r="4.8"/>
				<circle class="st1" cx="1277.4" cy="123.9" r="4.8"/>
				<circle class="st1" cx="1277.4" cy="140.7" r="4.8"/>
				<circle class="st1" cx="1277.4" cy="157.4" r="4.8"/>
				<circle class="st1" cx="1277.4" cy="174.2" r="4.8"/>
				<circle class="st1" cx="1277.4" cy="190.9" r="4.8"/>
				<circle class="st1" cx="1277.4" cy="207.6" r="4.8"/>
				<circle class="st1" cx="1277.4" cy="224.4" r="4.8"/>
				<circle class="st1" cx="1277.4" cy="241.1" r="4.8"/>
				<circle class="st1" cx="1277.4" cy="257.8" r="4.8"/>
			</g>
			<g>
				<circle class="st1" cx="1294.2" cy="90.5" r="4.8"/>
				<circle class="st1" cx="1294.2" cy="107.2" r="4.8"/>
				<circle class="st1" cx="1294.2" cy="123.9" r="4.8"/>
				<circle class="st1" cx="1294.2" cy="140.7" r="4.8"/>
				<circle class="st1" cx="1294.2" cy="157.4" r="4.8"/>
				<circle class="st1" cx="1294.2" cy="174.2" r="4.8"/>
				<circle class="st1" cx="1294.2" cy="190.9" r="4.8"/>
				<circle class="st1" cx="1294.2" cy="207.6" r="4.8"/>
				<circle class="st1" cx="1294.2" cy="224.4" r="4.8"/>
				<circle class="st1" cx="1294.2" cy="241.1" r="4.8"/>
				<circle class="st1" cx="1294.2" cy="257.8" r="4.8"/>
			</g>
			<g>
				<circle class="st1" cx="1311" cy="90.5" r="4.8"/>
				<circle class="st1" cx="1311" cy="107.2" r="4.8"/>
				<circle class="st1" cx="1311" cy="123.9" r="4.8"/>
				<circle class="st1" cx="1311" cy="140.7" r="4.8"/>
				<circle class="st1" cx="1311" cy="157.4" r="4.8"/>
				<circle class="st1" cx="1311" cy="174.2" r="4.8"/>
				<circle class="st1" cx="1311" cy="190.9" r="4.8"/>
				<circle class="st1" cx="1311" cy="207.6" r="4.8"/>
				<circle class="st1" cx="1311" cy="224.4" r="4.8"/>
				<circle class="st1" cx="1311" cy="241.1" r="4.8"/>
				<circle class="st1" cx="1311" cy="257.8" r="4.8"/>
			</g>
		</g>
	</g>
	<g>
		<rect x="1176.7" y="521.3" class="st1" width="20.7" height="102"/>
		<path class="st5" d="M1176.7,549.4c6.6,0.8,13.6,1.3,20.7,1.1v-29.2h-20.7V549.4z"/>
		<path class="st2" d="M1265.1,670.3h-160v-30.1c0-25.7,20.9-46.6,46.6-46.6h66.8c25.7,0,46.6,20.9,46.6,46.6V670.3z"/>
		<rect x="1084.1" y="650.3" class="st1" width="210" height="24"/>
		<rect x="1084.1" y="650.3" class="st5" width="210" height="10.7"/>
		<g>
			<path class="st2" d="M1072.5,376.7c0,0,14.1-17.5,44-17.5l-8.5,7.9c0,0,22,0.6,33.8,5.1l-10.2,4.5c0,0,14.1,3.4,28.2,18
				l-10.2,7.3l19.7,13l-6.8,1.7L1178,445c0,0-38.9-11.8-40-13.5C1136.8,429.7,1072.5,376.7,1072.5,376.7z"/>
			<path class="st2" d="M1271,440.4c0,0,38.4-9.6,48.5,7.3c10.2,16.9,32.1,96.4,32.1,96.4s-33.3-11.8-36.7-29.9
				c-3.4-18-5.6-0.6-5.6-0.6s-13.5-27.6-13-40.6c0.6-13-19.7-18-19.7-18L1271,440.4z"/>
			<path class="st1" d="M1311.1,564H1288c0-29.9-36.7-48.5-36.7-48.5c-45.7,36.7-128,3.4-128,3.4c-24.8,5.1-35,46.2-35,46.2h-26.5
				c-2.3-38.9,50.2-73.3,50.2-73.3c-6.8-13-9-57.5-9-57.5c-10.2,3.4-18.6-3.9-18.6-3.9l-17.9,13.2c-2,1.5-4.4,2.2-6.8,2.2
				c-0.4,0-0.7,0-1.1-0.1c-4.5-0.4-8.4-3.5-9.8-7.8l-2.1-6.4c0,0,9-17.5,14.1-23.1c5.1-5.6-1.7-10.2-1.7-10.2s9-14.1,13.5-21.4
				c4.5-7.3,48.5-9,66,22c6.4,11.3,13.5,19.4,20.1,25.1c11.5,10,21.1,12.7,21.1,12.7c22.5,12.2,46.1,7,65.3,4
				c10.2-1.6,19.2-2.6,26,0c19.7,7.3,4.5,56.4,4.5,56.4C1301.5,510.4,1311.1,564,1311.1,564z"/>
			<circle class="st9" cx="1077.4" cy="396.6" r="4.5"/>
			<path class="st2" d="M1079.5,365.6c0,0-11.3-3.4-15.2,2.1c-3.6,4.9-12.1,14.2-15,16.2c-0.3,0.2-0.6,0.3-0.7,0.4
				c-1.9,0.4,11.5,3,16-0.8l-3.6,3.9c0,0,12.4,2.1,17.9-1.9s9.2-7.7,9.2-7.7L1079.5,365.6z"/>
			<polygon class="st1" points="1072.5,376.7 1086.6,354.4 1092,382.6 			"/>
			<path class="st2" d="M1245,440.5V456c0,16.8-13.6,30.4-30.4,30.4H1189c-16.8,0-30.4-13.6-30.4-30.4v-32.2
				c11.5,10,21.1,12.7,21.1,12.7C1202.1,448.6,1225.8,443.5,1245,440.5z"/>
		</g>
	</g>
	<g>
		<rect x="259.3" y="430.9" class="st2" width="18.9" height="97"/>
		<circle class="st1" cx="267.1" cy="409.7" r="49.7"/>
		<path class="st6" d="M267.1,360c-4.1,0-8.1,0.5-12,1.5c21.7,5.4,37.7,24.9,37.7,48.3c0,23.3-16.1,42.9-37.7,48.3
			c3.8,0.9,7.8,1.5,12,1.5c27.5,0,49.7-22.3,49.7-49.7C316.8,382.3,294.6,360,267.1,360z"/>
	</g>
	<g>
		<rect x="399.4" y="430.9" class="st2" width="18.9" height="97"/>
		<circle class="st1" cx="407.3" cy="409.7" r="49.7"/>
		<path class="st6" d="M407.3,360c-4.1,0-8.1,0.5-12,1.5c21.7,5.4,37.7,24.9,37.7,48.3c0,23.3-16.1,42.9-37.7,48.3
			c3.8,0.9,7.8,1.5,12,1.5c27.5,0,49.7-22.3,49.7-49.7C457,382.3,434.7,360,407.3,360z"/>
	</g>
</g>
</svg>
