<svg xmlns="http://www.w3.org/2000/svg" xmlns:xlink="http://www.w3.org/1999/xlink" viewBox="0 0 1865.93 993.88"><defs><style>.cls-1,.cls-25{isolation:isolate;}.cls-2{fill:url(#radial-gradient);}.cls-3{fill:url(#radial-gradient-2);}.cls-4{fill:#d3d3d3;opacity:0.4;mix-blend-mode:multiply;}.cls-5{fill:#c4c4c4;}.cls-6{fill:#ddd;}.cls-7{fill:#efefef;}.cls-8{fill:#e1a35e;}.cls-9{fill:#0082ca;}.cls-10{fill:#afafaf;}.cls-11{fill:#9b8346;}.cls-12{fill:#61b2e4;}.cls-13{fill:#f5d4a5;}.cls-14{fill:#fdc113;}.cls-15{fill:#ffd839;}.cls-16{fill:#4e4e4e;}.cls-17{fill:#767677;}.cls-18{fill:#f37726;}.cls-19{fill:#9e9e9e;}.cls-20{fill:#616262;}.cls-21{fill:#192073;}.cls-22{fill:#646464;}.cls-23{fill:url(#linear-gradient);}.cls-24{fill:url(#linear-gradient-2);}.cls-25{opacity:0.44;fill:url(#radial-gradient-3);}.cls-26{fill:url(#linear-gradient-3);}.cls-27{fill:#212121;}</style><radialGradient id="radial-gradient" cx="1386.77" cy="761.21" r="760.86" gradientTransform="translate(-869.76) scale(1.3 1)" gradientUnits="userSpaceOnUse"><stop offset="0" stop-color="#a47df4" stop-opacity="0.3"/><stop offset="1" stop-color="#0a619b" stop-opacity="0"/><stop offset="1" stop-color="#a47df4" stop-opacity="0.7"/></radialGradient><radialGradient id="radial-gradient-2" cx="1333.72" cy="627.38" fx="1252.4412560881917" fy="616.7709441724793" r="472.59" gradientTransform="translate(-869.76) scale(1.3 1)" gradientUnits="userSpaceOnUse"><stop offset="0" stop-color="#fff"/><stop offset="0.67" stop-color="#ededed"/><stop offset="1" stop-color="#e2e2e2"/></radialGradient><linearGradient id="linear-gradient" x1="645.13" y1="967.2" x2="714.82" y2="907.24" gradientTransform="matrix(0.56, 0, 0, -0.57, 403.55, 1459.18)" gradientUnits="userSpaceOnUse"><stop offset="0" stop-color="#5a9fd4"/><stop offset="1" stop-color="#306998"/></linearGradient><linearGradient id="linear-gradient-2" x1="741.76" y1="870.95" x2="716.87" y2="906.16" gradientTransform="matrix(0.56, 0, 0, -0.57, 403.55, 1459.18)" gradientUnits="userSpaceOnUse"><stop offset="0" stop-color="#ffd43b"/><stop offset="1" stop-color="#ffe873"/></linearGradient><radialGradient id="radial-gradient-3" cx="-297.07" cy="1681.55" r="18.56" gradientTransform="matrix(0, -0.24, -1.05, 0, 2577.35, 918.15)" gradientUnits="userSpaceOnUse"><stop offset="0" stop-color="#b8b8b8" stop-opacity="0.5"/><stop offset="1" stop-color="#7f7f7f" stop-opacity="0"/></radialGradient><linearGradient id="linear-gradient-3" x1="820.61" y1="1430.18" x2="756.78" y2="1430.18" gradientTransform="matrix(1, 0, 0, -1, 0, 2165.57)" gradientUnits="userSpaceOnUse"><stop offset="0" stop-color="#ffa448"/><stop offset="1" stop-color="#ff4459"/></linearGradient></defs><g class="cls-1"><g id="Layer_2" data-name="Layer 2"><g id="Layer_1-2" data-name="Layer 1"><path class="cls-2" d="M213.75,679c83.57,27.58,147.6,76.49,184.27,133.82,46.62-10.31,102.22-10.41,159.58,2.08,73.57,16,135,49.45,172.83,89.5,45.45-30.07,109.28-48.79,180-48.79,72,0,136.87,19.41,182.46,50.46,37.71-40.79,99.81-74.93,174.41-91.17,57.36-12.49,113-12.39,159.58-2.08,36.67-57.33,100.7-106.24,184.28-133.82,86.62-28.58,177.72-28.76,254.8-6C1835.67,297.42,1429.34,0,932.53,0,440,0,36.42,292.3,0,663.26,67.32,651.12,142.07,655.34,213.75,679Z"/><path class="cls-3" d="M398,812.81c46.62-10.31,102.22-10.41,159.58,2.08,73.57,16,135,49.45,172.83,89.5,45.45-30.07,109.28-48.79,180-48.79,72,0,136.87,19.41,182.46,50.46,37.71-40.79,99.81-74.93,174.41-91.17,57.36-12.49,113-12.39,159.58-2.08,36.67-57.33,100.7-106.24,184.28-133.82q12.19-4,24.49-7.3c-72.74-69.13-164.39-128.41-273-172.85C972.48,339.2,496.9,425.75,238.1,687.85,309.78,716.39,365,761.18,398,812.81Z"/><path class="cls-4" d="M838.68,650.74c28.23,15.3,111,5.45,118.34-30.63s-73.7-44.19-118.34-31.68S787,622.71,838.68,650.74Z"/><path class="cls-4" d="M628.23,537.49c31.19,11,76.82,7.88,78.8-9s-27.39-27.05-59.72-24.8S590,523.94,628.23,537.49Z"/><path class="cls-4" d="M317.11,692.18c4.1-17.26,27.9-3.37,29.39,5.65S311.25,717,317.11,692.18Z"/><path class="cls-4" d="M1349.31,581.12c-2.39-14.68,19.82-14.39,23.11,0S1350.45,588.26,1349.31,581.12Z"/><path class="cls-4" d="M1195.1,576c-17.31-9.37,8.76-17.68,19.8-10.11S1213.83,586.2,1195.1,576Z"/><path class="cls-4" d="M1048.59,522.76c-11-4.22,3.26-20.63,17.61-12.44S1059.6,527,1048.59,522.76Z"/><path class="cls-4" d="M969.26,475.4c-11.87-10.71,14.29-7.61,23.13-4.23S988,492.32,969.26,475.4Z"/><path class="cls-4" d="M1162,508.08c-11-17.46,17.65-4.55,15.45,0S1162,508.08,1162,508.08Z"/><path class="cls-4" d="M971.47,510.32c-9.94-6.16,8.54-6.64,9.23-.22S971.47,510.32,971.47,510.32Z"/><path class="cls-4" d="M802.44,517.07c-5.22-2.92,6.82-10.16,13.15-4.66S811.88,522.35,802.44,517.07Z"/><path class="cls-4" d="M560.05,620.59c-10-6.2,19.85-14.1,30.84-5.64S575.48,630.18,560.05,620.59Z"/><path class="cls-4" d="M1441.74,724.89c9.89,6.73,31.56,12.07,54.59,13.67a372.9,372.9,0,0,1,74.54-44c-12.38-21.86-54-42.5-103.69-45.22C1397.46,645.5,1360.46,669.64,1441.74,724.89Z"/><path class="cls-5" d="M804.36,571.73c-8.52-36.7-12.69-143-12.73-144.1l3.72-.14c0,1.06,4.19,107,12.64,143.4Z"/><path class="cls-5" d="M785.53,571.73c-8.53-36.7-12.7-143-12.74-144.1l3.72-.14c0,1.06,4.19,107,12.64,143.4Z"/><path class="cls-5" d="M766.69,571.73C758.17,535,754,428.7,754,427.63l3.71-.14c.05,1.06,4.2,107,12.64,143.4Z"/><path class="cls-5" d="M747.86,571.73c-8.53-36.7-12.7-143-12.74-144.1l3.72-.14c0,1.06,4.19,107,12.64,143.4Z"/><path class="cls-5" d="M729,571.73c-8.53-36.7-12.69-143-12.73-144.1l3.71-.14c0,1.06,4.2,107,12.64,143.4Z"/><path class="cls-5" d="M718.54,571.73c-8.53-36.7-12.69-143-12.74-144.1l3.72-.14c0,1.06,4.2,107,12.64,143.4Z"/><rect class="cls-5" x="707.08" y="441.93" width="86.41" height="3.72"/><rect class="cls-5" x="708.93" y="463.1" width="86.41" height="3.72"/><rect class="cls-5" x="710.77" y="484.28" width="86.41" height="3.72"/><rect class="cls-5" x="712.62" y="505.45" width="86.41" height="3.72"/><rect class="cls-5" x="714.47" y="526.62" width="86.41" height="3.72"/><rect class="cls-5" x="716.31" y="547.8" width="86.41" height="3.72"/><rect class="cls-6" x="691.68" y="428.97" width="7.57" height="145.44"/><polygon class="cls-7" points="691.68 574.41 678.6 574.41 678.6 304.16 691.68 289.39 691.68 574.41"/><polygon class="cls-6" points="695.48 574.41 691.68 574.41 691.68 289.39 695.48 285.04 695.48 574.41"/><rect class="cls-7" x="721.25" y="408.17" width="95.82" height="17.98"/><rect class="cls-8" x="721.25" y="426.15" width="95.82" height="2.82"/><rect class="cls-7" x="721.25" y="387.37" width="95.82" height="17.98"/><rect class="cls-6" x="721.25" y="405.35" width="95.82" height="2.82"/><rect class="cls-7" x="721.25" y="366.9" width="95.82" height="17.98"/><rect class="cls-6" x="721.25" y="384.89" width="95.82" height="2.82"/><rect class="cls-7" x="721.25" y="346.44" width="95.82" height="17.98"/><rect class="cls-6" x="721.25" y="364.42" width="95.82" height="2.82"/><rect class="cls-7" x="721.25" y="325.98" width="95.82" height="17.98"/><rect class="cls-6" x="721.25" y="343.96" width="95.82" height="2.82"/><rect class="cls-7" x="721.25" y="305.51" width="95.82" height="17.98"/><rect class="cls-6" x="721.25" y="323.5" width="95.82" height="2.82"/><rect class="cls-6" x="721.25" y="417.16" width="95.82" height="11.81"/><rect class="cls-6" x="815.14" y="304.16" width="7.57" height="270.25"/><rect class="cls-7" x="802.06" y="428.97" width="13.08" height="145.44"/><polygon class="cls-9" points="832.66 318.18 752.93 230.31 673.2 318.18 666.93 312.5 752.93 217.72 838.92 312.5 832.66 318.18"/><polygon class="cls-10" points="551.61 318.18 673.2 318.18 700.6 286.06 635.5 222.31 551.61 318.18"/><polygon class="cls-10" points="714.01 286.06 700.97 301.34 698.57 304.16 686.61 318.18 565.02 318.18 577.29 304.16 579.76 301.34 595.49 283.36 597.96 280.54 613.7 262.55 616.16 259.74 631.9 241.76 634.36 238.94 648.91 222.31 665.89 238.94 668.77 241.76 687.13 259.74 690 262.55 707.08 279.28 711.24 283.36 714.01 286.06"/><rect class="cls-7" x="594.02" y="304.16" width="106.58" height="17.98"/><rect class="cls-6" x="594.02" y="322.14" width="106.58" height="2.82"/><polygon class="cls-11" points="724.94 283.36 724.94 301.34 700.97 301.34 714.01 286.06 711.24 283.36 724.94 283.36"/><polygon class="cls-7" points="714.01 286.06 700.97 301.34 579.76 301.34 595.49 283.36 711.24 283.36 714.01 286.06"/><polygon class="cls-6" points="724.94 301.34 724.94 304.16 577.29 304.16 579.76 301.34 724.94 301.34"/><polygon class="cls-7" points="707.08 279.28 707.08 280.54 597.96 280.54 613.7 262.55 690 262.55 707.08 279.28"/><polygon class="cls-6" points="707.08 280.54 707.08 283.36 595.49 283.36 597.96 280.54 707.08 280.54"/><polygon class="cls-7" points="687.13 259.74 616.16 259.74 631.9 241.76 668.77 241.76 687.13 259.74"/><polygon class="cls-6" points="690 262.55 613.7 262.55 616.16 259.74 687.13 259.74 690 262.55"/><polygon class="cls-7" points="665.89 238.94 634.36 238.94 648.91 222.31 665.89 238.94"/><polygon class="cls-7" points="668.77 241.76 631.9 241.76 634.36 238.94 665.89 238.94 668.77 241.76"/><rect class="cls-7" x="594.02" y="324.96" width="106.58" height="17.98"/><rect class="cls-6" x="594.02" y="342.94" width="106.58" height="2.82"/><rect class="cls-7" x="594.02" y="345.76" width="106.58" height="17.98"/><rect class="cls-6" x="594.02" y="363.75" width="106.58" height="2.82"/><rect class="cls-7" x="594.02" y="366.56" width="106.58" height="17.98"/><rect class="cls-6" x="594.02" y="384.55" width="106.58" height="2.82"/><rect class="cls-7" x="594.02" y="387.37" width="106.58" height="17.98"/><rect class="cls-6" x="594.02" y="405.35" width="106.58" height="2.82"/><rect class="cls-7" x="594.02" y="408.17" width="106.58" height="17.98"/><rect class="cls-8" x="594.02" y="426.15" width="106.58" height="2.82"/><path class="cls-5" d="M793.68,353.94v63.22h-4.46V353.94a27.63,27.63,0,0,0-25.39-27.54c.74,0,1.48-.08,2.23-.08A27.61,27.61,0,0,1,793.68,353.94Z"/><path class="cls-10" d="M789.22,353.94v63.22H738.44V353.94a25.47,25.47,0,1,1,50.78,0Z"/><circle class="cls-5" cx="616.68" cy="333.03" r="14.66"/><circle class="cls-10" cx="616.68" cy="333.03" r="11"/><circle class="cls-5" cx="677.94" cy="333.03" r="14.66"/><circle class="cls-10" cx="677.94" cy="333.03" r="11"/><rect class="cls-6" x="604.77" y="417.16" width="95.82" height="11.81"/><rect class="cls-7" x="811.1" y="318.37" width="4.05" height="110.6"/><rect class="cls-6" x="590.21" y="428.97" width="7.57" height="145.44"/><rect class="cls-6" x="713.68" y="304.16" width="7.57" height="270.25"/><rect class="cls-7" x="700.6" y="304.16" width="13.08" height="270.25"/><polygon class="cls-7" points="590.21 574.41 577.13 574.41 577.13 304.16 590.21 289.39 590.21 574.41"/><polygon class="cls-6" points="594.02 574.41 590.21 574.41 590.21 289.39 594.02 285.04 594.02 574.41"/><path class="cls-6" d="M618.79,426.69a6.28,6.28,0,0,0,.27,3.95l0,0a17.37,17.37,0,0,0,1.18,2.83c1.78,3.56,5.17,8.19,10.85,13.59,16.58,15.75,23.13,30.81,24.82,43.51a53.83,53.83,0,0,1-3.38,27c-7.68,19.22-26.48,34.73-54.38,44.84-21.23,7.7-46.46,11.94-71,11.94a29,29,0,1,1,0-58.06c17,0,35-2.86,49.52-7.85,12.64-4.34,18.86-9,21.12-11.38a35.53,35.53,0,0,0-6.64-7.92c-13.34-12.67-22.45-26.1-27.08-39.91-5-15-4.73-30.21.83-44.14.29-.72.59-1.44.91-2.15l0-.05c6.62-14.95,19-27.29,35.86-35.79,15.13-7.62,33-11.64,51.65-11.64a29,29,0,1,1,0,58.06c-9.5,0-18.57,1.93-25.54,5.44C622.31,421.77,619.55,424.78,618.79,426.69Z"/><circle class="cls-5" cx="527.12" cy="545.38" r="29.03" transform="matrix(0.93, -0.38, 0.38, 0.93, -166.38, 238.21)"/><circle class="cls-10" cx="527.12" cy="545.38" r="25.93" transform="translate(-166.61 238.74) rotate(-22.13)"/><path class="cls-5" d="M682.34,384.55a29,29,0,0,1-29,29c-9.5,0-18.57,1.93-25.54,5.44-5.46,2.75-8.22,5.76-9,7.67a6.28,6.28,0,0,0,.27,3.95C606.1,398,623.71,384.55,682.34,384.55Z"/><path class="cls-5" d="M652.55,517.63c-7.68,19.22-26.48,34.73-54.38,44.84-21.23,7.7-46.46,11.94-71,11.94a29,29,0,0,0,29-29c66.6,0,99.78-30.63,99.78-54.77A53.83,53.83,0,0,1,652.55,517.63Z"/><polygon class="cls-6" points="631.34 217.72 759.07 217.72 845.06 312.5 717.34 312.5 631.34 217.72"/><polygon class="cls-5" points="717.34 312.5 845.06 312.5 838.8 318.18 711.08 318.18 717.34 312.5"/><polygon class="cls-5" points="711.08 318.18 631.34 230.31 551.61 318.18 545.35 312.5 631.34 217.72 717.34 312.5 711.08 318.18"/><path class="cls-5" d="M952.41,432.51c-49,0-102.55-4.5-161.24-13.51l.56-3.68c117,17.95,213.24,18,294.32,0l.81,3.64C1046.07,428,1001.48,432.51,952.41,432.51Z"/><path class="cls-5" d="M897.16,389c-49,0-102.54-4.5-161.24-13.51l.57-3.68c117,17.95,213.24,18,294.32,0l.8,3.63C990.83,384.51,946.23,389,897.16,389Z"/><path class="cls-5" d="M952.41,389c-49,0-102.55-4.5-161.24-13.51l.56-3.68c117,17.95,213.24,18,294.32,0l.81,3.63C1046.07,384.51,1001.48,389,952.41,389Z"/><rect class="cls-12" x="765.39" y="417.24" width="76.08" height="3.85"/><polygon class="cls-6" points="966.49 427.05 890.34 428.5 890.34 424.65 966.49 423.2 966.49 427.05"/><polygon class="cls-6" points="874.73 425.25 890.34 424.65 890.34 428.5 874.73 429.1 874.73 425.25"/><polygon class="cls-6" points="950.87 423.8 966.49 423.2 890.34 424.65 874.73 425.25 950.87 423.8"/><polygon class="cls-6" points="1030.01 423.46 955.08 423.75 955.08 427.6 1030.01 427.31 1030.01 423.46"/><polygon class="cls-10" points="939.71 428.84 955.08 427.6 955.08 423.75 939.71 424.99 939.71 428.84"/><polygon class="cls-5" points="1014.64 428.55 1030.01 427.31 955.08 427.6 939.71 428.84 1014.64 428.55"/><path class="cls-5" d="M897.16,432.51c-49,0-102.54-4.5-161.24-13.51l.57-3.68c117,17.95,213.24,18,294.32,0l.8,3.64C990.83,428,946.24,432.51,897.16,432.51Z"/><rect class="cls-5" x="781" y="419.17" width="76.08" height="3.85"/><polygon class="cls-10" points="765.39 417.24 781 419.17 781 423.02 765.39 421.09 765.39 417.24"/><polygon class="cls-6" points="841.47 417.24 857.08 419.17 781 419.17 765.39 417.24 841.47 417.24"/><polygon class="cls-5" points="891.59 426.33 815.45 427.78 815.45 423.93 891.59 422.48 891.59 426.33"/><polygon class="cls-10" points="799.83 422.3 815.45 423.93 815.45 427.78 799.83 426.15 799.83 422.3"/><polygon class="cls-6" points="875.98 420.85 891.59 422.48 815.45 423.93 799.83 422.3 875.98 420.85"/><polygon class="cls-5" points="930.76 427.78 854.62 429.23 854.62 425.38 930.76 423.93 930.76 427.78"/><polygon class="cls-10" points="839 424.5 854.62 425.38 854.62 429.23 839 428.34 839 424.5"/><polygon class="cls-6" points="915.15 423.05 930.76 423.93 854.62 425.38 839 424.5 915.15 423.05"/><polygon class="cls-10" points="907.52 424.63 923.14 424.02 923.14 427.87 907.52 428.48 907.52 424.63"/><rect class="cls-5" x="779.14" y="380.42" width="3.72" height="42.73"/><rect class="cls-5" x="807" y="382.78" width="3.72" height="42.73"/><rect class="cls-5" x="837.14" y="386.8" width="3.72" height="42.73"/><rect class="cls-5" x="867.28" y="386.8" width="3.72" height="42.73"/><rect class="cls-5" x="897.42" y="386.8" width="3.72" height="42.73"/><rect class="cls-13" x="927.56" y="386.3" width="3.72" height="42.73"/><rect class="cls-5" x="957.7" y="384.52" width="3.72" height="42.73"/><rect class="cls-5" x="987.84" y="381.36" width="3.72" height="42.73"/><polygon class="cls-10" points="1164.21 574.41 1171.84 574.41 1153.01 426.97 1145.37 426.97 1164.21 574.41"/><path class="cls-5" d="M1156.14,451h49.53a2.73,2.73,0,0,0,2.73-2.73h0a2.73,2.73,0,0,0-2.73-2.73h-49.53a2.73,2.73,0,0,0-2.73,2.73h0A2.73,2.73,0,0,0,1156.14,451Z"/><path class="cls-5" d="M1159.24,478.93h49.53a2.73,2.73,0,0,0,2.73-2.73h0a2.73,2.73,0,0,0-2.73-2.73h-49.53a2.73,2.73,0,0,0-2.73,2.73h0A2.73,2.73,0,0,0,1159.24,478.93Z"/><path class="cls-5" d="M1162.34,506.83h49.53a2.73,2.73,0,0,0,2.73-2.73h0a2.73,2.73,0,0,0-2.73-2.73h-49.53a2.73,2.73,0,0,0-2.73,2.73h0A2.73,2.73,0,0,0,1162.34,506.83Z"/><rect class="cls-5" x="1162.71" y="529.27" width="54.99" height="5.46" rx="2.73"/><path class="cls-5" d="M1168.54,562.63h49.53a2.73,2.73,0,0,0,2.73-2.73h0a2.73,2.73,0,0,0-2.73-2.73h-49.53a2.73,2.73,0,0,0-2.73,2.73h0A2.73,2.73,0,0,0,1168.54,562.63Z"/><polygon class="cls-10" points="1219.35 574.41 1226.98 574.41 1208.15 426.97 1200.52 426.97 1219.35 574.41"/><rect class="cls-6" x="1121.14" y="428.97" width="7.57" height="145.44"/><polygon class="cls-7" points="1121.14 574.41 1108.06 574.41 1108.06 304.16 1121.14 289.39 1121.14 574.41"/><polygon class="cls-6" points="1124.95 574.41 1121.14 574.41 1121.14 289.39 1124.95 285.04 1124.95 574.41"/><rect class="cls-7" x="1154.5" y="305.51" width="95.82" height="17.98"/><rect class="cls-7" x="1154.5" y="323.5" width="95.82" height="2.82"/><rect class="cls-6" x="1154.5" y="417.16" width="95.82" height="11.81"/><rect class="cls-6" x="1248.39" y="304.16" width="7.57" height="270.25"/><rect class="cls-7" x="1235.31" y="428.97" width="13.08" height="145.44"/><polygon class="cls-9" points="1265.91 318.18 1186.18 230.31 1106.44 318.18 1100.18 312.5 1186.18 217.72 1272.17 312.5 1265.91 318.18"/><polygon class="cls-10" points="984.86 318.18 1106.44 318.18 1133.85 286.06 1068.75 222.31 984.86 318.18"/><polygon class="cls-10" points="1147.26 286.06 1134.22 301.34 1131.82 304.16 1119.86 318.18 998.27 318.18 1010.54 304.16 1013.01 301.34 1028.74 283.36 1031.21 280.54 1046.95 262.55 1049.41 259.74 1065.15 241.76 1067.61 238.94 1082.16 222.31 1099.14 238.94 1102.02 241.76 1120.38 259.74 1123.26 262.55 1140.33 279.28 1144.49 283.36 1147.26 286.06"/><rect class="cls-6" x="1023.46" y="428.97" width="7.57" height="145.44"/><rect class="cls-6" x="1146.93" y="304.16" width="7.57" height="270.25"/><rect class="cls-7" x="1133.85" y="304.16" width="13.08" height="270.25"/><rect class="cls-7" x="1027.27" y="304.16" width="106.58" height="17.98"/><rect class="cls-6" x="1027.27" y="322.14" width="106.58" height="2.82"/><polygon class="cls-11" points="1158.19 283.36 1158.19 301.34 1134.22 301.34 1147.26 286.06 1144.49 283.36 1158.19 283.36"/><polygon class="cls-7" points="1147.26 286.06 1134.22 301.34 1013.01 301.34 1028.74 283.36 1144.49 283.36 1147.26 286.06"/><polygon class="cls-6" points="1158.19 301.34 1158.19 304.16 1010.54 304.16 1013.01 301.34 1158.19 301.34"/><polygon class="cls-7" points="1140.33 279.28 1140.33 280.54 1031.21 280.54 1046.95 262.55 1123.26 262.55 1140.33 279.28"/><polygon class="cls-6" points="1140.33 280.54 1140.33 283.36 1028.74 283.36 1031.21 280.54 1140.33 280.54"/><polygon class="cls-7" points="1120.38 259.74 1049.41 259.74 1065.15 241.76 1102.02 241.76 1120.38 259.74"/><polygon class="cls-6" points="1123.26 262.55 1046.95 262.55 1049.41 259.74 1120.38 259.74 1123.26 262.55"/><polygon class="cls-7" points="1099.14 238.94 1067.61 238.94 1082.16 222.31 1099.14 238.94"/><polygon class="cls-6" points="1102.02 241.76 1065.15 241.76 1067.61 238.94 1099.14 238.94 1102.02 241.76"/><polygon class="cls-6" points="1064.59 217.72 1192.32 217.72 1278.31 312.5 1150.59 312.5 1064.59 217.72"/><polygon class="cls-5" points="1150.59 312.5 1278.31 312.5 1272.05 318.18 1144.33 318.18 1150.59 312.5"/><polygon class="cls-5" points="1144.33 318.18 1064.59 230.31 984.86 318.18 978.6 312.5 1064.59 217.72 1150.59 312.5 1144.33 318.18"/><rect class="cls-6" x="1027.25" y="417.16" width="106.6" height="11.81"/><rect class="cls-7" x="1244.35" y="318.37" width="4.05" height="110.6"/><polygon class="cls-7" points="1023.46 574.41 1010.38 574.41 1010.38 304.16 1023.46 289.39 1023.46 574.41"/><polygon class="cls-6" points="1027.27 574.41 1023.46 574.41 1023.46 289.39 1027.27 285.04 1027.27 574.41"/><rect class="cls-6" x="909.87" y="307.66" width="234.45" height="15.89"/><polygon class="cls-5" points="1064.59 230.31 1064.59 217.72 1150.59 312.5 1144.33 318.18 1064.59 230.31"/><rect class="cls-5" x="897.52" y="307.66" width="12.36" height="15.89"/><rect class="cls-7" x="1027.1" y="367.72" width="106.75" height="11.9"/><rect class="cls-6" x="1027.25" y="377.86" width="3.96" height="39.29"/><rect class="cls-7" x="1035.35" y="377.86" width="10.26" height="39.29"/><rect class="cls-6" x="1045.61" y="377.86" width="2.66" height="39.29"/><rect class="cls-7" x="1051.27" y="377.86" width="10.26" height="39.29"/><rect class="cls-6" x="1061.53" y="377.86" width="2.66" height="39.29"/><rect class="cls-7" x="1067.18" y="377.86" width="10.26" height="39.29"/><rect class="cls-6" x="1077.44" y="377.86" width="2.66" height="39.29"/><rect class="cls-7" x="1083.1" y="377.86" width="10.26" height="39.29"/><rect class="cls-6" x="1093.36" y="377.86" width="2.66" height="39.29"/><rect class="cls-7" x="1099.01" y="377.86" width="10.26" height="39.29"/><rect class="cls-6" x="1109.27" y="377.86" width="2.66" height="39.29"/><rect class="cls-7" x="1114.93" y="377.86" width="10.26" height="39.29"/><rect class="cls-6" x="1125.19" y="377.86" width="2.66" height="39.29"/><rect class="cls-7" x="1154.5" y="367.72" width="92.63" height="11.9"/><rect class="cls-7" x="1238.05" y="377.86" width="10.26" height="39.29" transform="translate(2486.36 795.02) rotate(180)"/><rect class="cls-6" x="1235.38" y="377.86" width="2.66" height="39.29" transform="translate(2473.43 795.02) rotate(180)"/><rect class="cls-7" x="1222.13" y="377.86" width="10.26" height="39.29" transform="translate(2454.53 795.02) rotate(180)"/><rect class="cls-6" x="1219.47" y="377.86" width="2.66" height="39.29" transform="translate(2441.6 795.02) rotate(180)"/><rect class="cls-7" x="1206.22" y="377.86" width="10.26" height="39.29" transform="translate(2422.7 795.02) rotate(180)"/><rect class="cls-6" x="1203.55" y="377.86" width="2.66" height="39.29" transform="translate(2409.77 795.02) rotate(180)"/><path class="cls-5" d="M1317.13,574.41c-26.61,0-45.8-19.06-60.05-41.58s-23.55-48.45-30.36-62.21c-13.63-27.53-33.35-53.46-72.22-53.46V400.68a88.55,88.55,0,0,1,36.36,7.35c1.54.69,3.06,1.42,4.54,2.19a86.76,86.76,0,0,1,14.09,9.17c35,27.82,48.33,79.29,63.25,102.57,10.22,15.95,21,24.13,29.41,28.32A27,27,0,0,1,1317.13,574.41Z"/><path class="cls-5" d="M1353.49,574.41c-26.61,0-45.81-19.06-60.06-41.58s-23.54-48.45-30.35-62.21c-11.26-22.74-26.67-44.37-53.59-51.23a75.39,75.39,0,0,0-18.63-2.23V400.68c79.4,0,97.25,88.54,118.23,121.28,10.23,15.95,21,24.13,29.42,28.32A27,27,0,0,1,1353.49,574.41Z"/><path class="cls-6" d="M1353.49,574.41h-36.36a27,27,0,0,0-15-24.13c-8.39-4.19-19.19-12.37-29.41-28.32-14.92-23.28-28.26-74.75-63.25-102.57,26.92,6.86,42.33,28.49,53.59,51.23,6.81,13.76,16.11,39.71,30.35,62.21S1326.88,574.41,1353.49,574.41Z"/><rect class="cls-5" x="751.67" y="376.44" width="3.72" height="42.73"/><rect class="cls-6" x="1017.98" y="410.95" width="3.72" height="42.73"/><line class="cls-10" x1="956.32" y1="322.03" x2="956.32" y2="521.27"/><path class="cls-10" d="M957.26,331.26a.93.93,0,0,0-.12-.43.88.88,0,0,1-.82.55.86.86,0,0,1-.81-.55.82.82,0,0,0-.12.43v1.84h-1.76v-1.84a2.63,2.63,0,0,1,1.81-2.47V326.1a2.63,2.63,0,0,1-1.81-2.48V322h1.76v1.59a1,1,0,0,0,.05.31v-.13a.88.88,0,0,1,1.76,0v.13a.78.78,0,0,0,.06-.31V322H959v1.59a2.62,2.62,0,0,1-1.82,2.48v2.69a2.62,2.62,0,0,1,1.82,2.47v1.84h-1.76Z"/><path class="cls-10" d="M957.26,342.33a.89.89,0,0,0-.12-.43.88.88,0,0,1-.82.55.86.86,0,0,1-.81-.55.8.8,0,0,0-.12.43v1.84h-1.76v-1.84a2.63,2.63,0,0,1,1.81-2.47v-2.69a2.64,2.64,0,0,1-1.81-2.48V333.1h1.76v1.59a1.06,1.06,0,0,0,.05.31v-.13a.88.88,0,0,1,1.76,0V335a.81.81,0,0,0,.06-.31V333.1H959v1.59a2.63,2.63,0,0,1-1.82,2.48v2.69a2.62,2.62,0,0,1,1.82,2.47v1.84h-1.76Z"/><path class="cls-10" d="M957.26,353.4a.89.89,0,0,0-.12-.43.88.88,0,0,1-.82.55.86.86,0,0,1-.81-.55.8.8,0,0,0-.12.43v1.84h-1.76V353.4a2.63,2.63,0,0,1,1.81-2.47v-2.69a2.64,2.64,0,0,1-1.81-2.48v-1.59h1.76v1.59a1.06,1.06,0,0,0,.05.31v-.14a.88.88,0,0,1,1.76,0v.14a.81.81,0,0,0,.06-.31v-1.59H959v1.59a2.63,2.63,0,0,1-1.82,2.48v2.69A2.62,2.62,0,0,1,959,353.4v1.84h-1.76Z"/><path class="cls-10" d="M957.26,364.47a.89.89,0,0,0-.12-.43.87.87,0,0,1-.82.54.86.86,0,0,1-.81-.54.8.8,0,0,0-.12.43v1.84h-1.76v-1.84a2.62,2.62,0,0,1,1.81-2.47v-2.69a2.64,2.64,0,0,1-1.81-2.48v-1.59h1.76v1.59a1.06,1.06,0,0,0,.05.31V357a.88.88,0,0,1,1.76,0v.14a.81.81,0,0,0,.06-.31v-1.59H959v1.59a2.63,2.63,0,0,1-1.82,2.48V362a2.61,2.61,0,0,1,1.82,2.47v1.84h-1.76Z"/><path class="cls-10" d="M957.26,375.54a.93.93,0,0,0-.12-.44.86.86,0,0,1-.82.55.85.85,0,0,1-.81-.55.83.83,0,0,0-.12.44v1.83h-1.76v-1.83a2.64,2.64,0,0,1,1.81-2.48v-2.68a2.64,2.64,0,0,1-1.81-2.48v-1.59h1.76v1.59a1.06,1.06,0,0,0,.05.31v-.14a.88.88,0,0,1,1.76,0v.14a.81.81,0,0,0,.06-.31v-1.59H959v1.59a2.63,2.63,0,0,1-1.82,2.48v2.68a2.63,2.63,0,0,1,1.82,2.48v1.83h-1.76Z"/><path class="cls-10" d="M957.26,386.61a.93.93,0,0,0-.12-.44.86.86,0,0,1-.82.55.85.85,0,0,1-.81-.55.83.83,0,0,0-.12.44v1.83h-1.76v-1.83a2.64,2.64,0,0,1,1.81-2.48v-2.68a2.64,2.64,0,0,1-1.81-2.48v-1.6h1.76V379a1.06,1.06,0,0,0,.05.31v-.14a.88.88,0,0,1,1.76,0v.14a.81.81,0,0,0,.06-.31v-1.6H959V379a2.63,2.63,0,0,1-1.82,2.48v2.68a2.63,2.63,0,0,1,1.82,2.48v1.83h-1.76Z"/><path class="cls-10" d="M957.26,397.68a.93.93,0,0,0-.12-.44.88.88,0,0,1-.82.55.86.86,0,0,1-.81-.55.83.83,0,0,0-.12.44v1.83h-1.76v-1.83a2.64,2.64,0,0,1,1.81-2.48v-2.68a2.65,2.65,0,0,1-1.81-2.48v-1.6h1.76V390a1.06,1.06,0,0,0,.05.31v-.14a.88.88,0,0,1,1.76,0v.14a.81.81,0,0,0,.06-.31v-1.6H959V390a2.64,2.64,0,0,1-1.82,2.48v2.68a2.63,2.63,0,0,1,1.82,2.48v1.83h-1.76Z"/><path class="cls-10" d="M957.26,408.75a.93.93,0,0,0-.12-.44.88.88,0,0,1-.82.55.86.86,0,0,1-.81-.55.83.83,0,0,0-.12.44v1.83h-1.76v-1.83a2.64,2.64,0,0,1,1.81-2.48v-2.69a2.63,2.63,0,0,1-1.81-2.47v-1.6h1.76v1.6a1.06,1.06,0,0,0,.05.31v-.14a.88.88,0,0,1,1.76,0v.13a.73.73,0,0,0,.06-.3v-1.6H959v1.6a2.62,2.62,0,0,1-1.82,2.47v2.69a2.63,2.63,0,0,1,1.82,2.48v1.83h-1.76Z"/><path class="cls-10" d="M957.26,419.82a.93.93,0,0,0-.12-.44.88.88,0,0,1-.82.55.86.86,0,0,1-.81-.55.83.83,0,0,0-.12.44v1.83h-1.76v-1.83a2.64,2.64,0,0,1,1.81-2.48v-2.69a2.63,2.63,0,0,1-1.81-2.47v-1.6h1.76v1.6a1.12,1.12,0,0,0,.05.31v-.14a.88.88,0,0,1,1.76,0v.13a.77.77,0,0,0,.06-.3v-1.6H959v1.6a2.62,2.62,0,0,1-1.82,2.47v2.69a2.63,2.63,0,0,1,1.82,2.48v1.83h-1.76Z"/><path class="cls-10" d="M957.26,430.89a.93.93,0,0,0-.12-.44.88.88,0,0,1-.82.55.86.86,0,0,1-.81-.55.83.83,0,0,0-.12.44v1.83h-1.76v-1.83a2.64,2.64,0,0,1,1.81-2.48v-2.69a2.63,2.63,0,0,1-1.81-2.47v-1.6h1.76v1.6a1,1,0,0,0,.05.3v-.13a.88.88,0,0,1,1.76,0v.13a.77.77,0,0,0,.06-.3v-1.6H959v1.6a2.62,2.62,0,0,1-1.82,2.47v2.69a2.63,2.63,0,0,1,1.82,2.48v1.83h-1.76Z"/><path class="cls-10" d="M957.26,442a.93.93,0,0,0-.12-.44.88.88,0,0,1-.82.55.86.86,0,0,1-.81-.55.83.83,0,0,0-.12.44v1.83h-1.76V442a2.63,2.63,0,0,1,1.81-2.48v-2.69a2.63,2.63,0,0,1-1.81-2.47v-1.6h1.76v1.6a1,1,0,0,0,.05.3v-.13a.88.88,0,0,1,1.76,0v.13a.77.77,0,0,0,.06-.3v-1.6H959v1.6a2.62,2.62,0,0,1-1.82,2.47v2.69A2.62,2.62,0,0,1,959,442v1.83h-1.76Z"/><path class="cls-10" d="M957.26,453a.93.93,0,0,0-.12-.43.88.88,0,0,1-.82.55.86.86,0,0,1-.81-.55.82.82,0,0,0-.12.43v1.84h-1.76V453a2.63,2.63,0,0,1,1.81-2.47v-2.69a2.64,2.64,0,0,1-1.81-2.48v-1.59h1.76v1.59a1.06,1.06,0,0,0,.05.31v-.13a.88.88,0,0,1,1.76,0v.13a.81.81,0,0,0,.06-.31v-1.59H959v1.59a2.63,2.63,0,0,1-1.82,2.48v2.69A2.62,2.62,0,0,1,959,453v1.84h-1.76Z"/><path class="cls-10" d="M957.26,464.09a.89.89,0,0,0-.12-.43.88.88,0,0,1-.82.55.86.86,0,0,1-.81-.55.8.8,0,0,0-.12.43v1.84h-1.76v-1.84a2.63,2.63,0,0,1,1.81-2.47v-2.69a2.64,2.64,0,0,1-1.81-2.48v-1.59h1.76v1.59a1.06,1.06,0,0,0,.05.31v-.14a.88.88,0,0,1,1.76,0v.14a.81.81,0,0,0,.06-.31v-1.59H959v1.59a2.63,2.63,0,0,1-1.82,2.48v2.69a2.62,2.62,0,0,1,1.82,2.47v1.84h-1.76Z"/><path class="cls-10" d="M957.26,475.16a.89.89,0,0,0-.12-.43.88.88,0,0,1-.82.55.86.86,0,0,1-.81-.55.8.8,0,0,0-.12.43V477h-1.76v-1.84a2.62,2.62,0,0,1,1.81-2.47V470a2.64,2.64,0,0,1-1.81-2.48v-1.59h1.76v1.59a1.06,1.06,0,0,0,.05.31v-.14a.88.88,0,0,1,1.76,0v.14a.81.81,0,0,0,.06-.31v-1.59H959v1.59A2.63,2.63,0,0,1,957.2,470v2.69a2.61,2.61,0,0,1,1.82,2.47V477h-1.76Z"/><path class="cls-10" d="M957.26,486.23a.89.89,0,0,0-.12-.43.87.87,0,0,1-.82.54.86.86,0,0,1-.81-.54.8.8,0,0,0-.12.43v1.83h-1.76v-1.83a2.64,2.64,0,0,1,1.81-2.48v-2.68a2.64,2.64,0,0,1-1.81-2.48V477h1.76v1.59a1.06,1.06,0,0,0,.05.31v-.14a.88.88,0,0,1,1.76,0v.14a.81.81,0,0,0,.06-.31V477H959v1.59a2.63,2.63,0,0,1-1.82,2.48v2.68a2.63,2.63,0,0,1,1.82,2.48v1.83h-1.76Z"/><path class="cls-10" d="M957.26,497.3a.93.93,0,0,0-.12-.44.86.86,0,0,1-.82.55.85.85,0,0,1-.81-.55.83.83,0,0,0-.12.44v1.83h-1.76V497.3a2.64,2.64,0,0,1,1.81-2.48v-2.68a2.64,2.64,0,0,1-1.81-2.48v-1.6h1.76v1.6a1.06,1.06,0,0,0,.05.31v-.14a.88.88,0,0,1,1.76,0V490a.81.81,0,0,0,.06-.31v-1.6H959v1.6a2.63,2.63,0,0,1-1.82,2.48v2.68A2.63,2.63,0,0,1,959,497.3v1.83h-1.76Z"/><path class="cls-10" d="M957.26,508.37a.93.93,0,0,0-.12-.44.88.88,0,0,1-.82.55.86.86,0,0,1-.81-.55.83.83,0,0,0-.12.44v1.83h-1.76v-1.83a2.64,2.64,0,0,1,1.81-2.48v-2.68a2.64,2.64,0,0,1-1.81-2.48v-1.6h1.76v1.6a1.06,1.06,0,0,0,.05.31v-.14a.88.88,0,0,1,1.76,0V501a.81.81,0,0,0,.06-.31v-1.6H959v1.6a2.63,2.63,0,0,1-1.82,2.48v2.68a2.63,2.63,0,0,1,1.82,2.48v1.83h-1.76Z"/><path class="cls-10" d="M957.26,519.44a.93.93,0,0,0-.12-.44.88.88,0,0,1-.82.55.86.86,0,0,1-.81-.55.83.83,0,0,0-.12.44v1.83h-1.76v-1.83a2.64,2.64,0,0,1,1.81-2.48v-2.69a2.63,2.63,0,0,1-1.81-2.47v-1.6h1.76v1.6a1.06,1.06,0,0,0,.05.31V512a.88.88,0,0,1,1.76,0v.13a.73.73,0,0,0,.06-.3v-1.6H959v1.6a2.62,2.62,0,0,1-1.82,2.47V517a2.63,2.63,0,0,1,1.82,2.48v1.83h-1.76Z"/><line class="cls-10" x1="1013.4" y1="322.03" x2="1013.4" y2="521.27"/><path class="cls-10" d="M1014.34,331.26a.93.93,0,0,0-.12-.43.89.89,0,0,1-.82.55.88.88,0,0,1-.82-.55.93.93,0,0,0-.12.43v1.84h-1.75v-1.84a2.63,2.63,0,0,1,1.81-2.47V326.1a2.63,2.63,0,0,1-1.81-2.48V322h1.75v1.59a.78.78,0,0,0,.06.31v-.13a.88.88,0,0,1,1.76,0v.13a1,1,0,0,0,.06-.31V322h1.75v1.59a2.63,2.63,0,0,1-1.81,2.48v2.69a2.63,2.63,0,0,1,1.81,2.47v1.84h-1.75Z"/><path class="cls-10" d="M1014.34,342.33a.89.89,0,0,0-.12-.43.89.89,0,0,1-.82.55.88.88,0,0,1-.82-.55.89.89,0,0,0-.12.43v1.84h-1.75v-1.84a2.63,2.63,0,0,1,1.81-2.47v-2.69a2.64,2.64,0,0,1-1.81-2.48V333.1h1.75v1.59a.81.81,0,0,0,.06.31v-.13a.88.88,0,0,1,1.76,0V335a1.07,1.07,0,0,0,.06-.31V333.1h1.75v1.59a2.64,2.64,0,0,1-1.81,2.48v2.69a2.63,2.63,0,0,1,1.81,2.47v1.84h-1.75Z"/><path class="cls-10" d="M1014.34,353.4a.89.89,0,0,0-.12-.43.89.89,0,0,1-.82.55.88.88,0,0,1-.82-.55.89.89,0,0,0-.12.43v1.84h-1.75V353.4a2.63,2.63,0,0,1,1.81-2.47v-2.69a2.64,2.64,0,0,1-1.81-2.48v-1.59h1.75v1.59a.81.81,0,0,0,.06.31v-.14a.88.88,0,0,1,1.76,0v.14a1.07,1.07,0,0,0,.06-.31v-1.59h1.75v1.59a2.64,2.64,0,0,1-1.81,2.48v2.69a2.63,2.63,0,0,1,1.81,2.47v1.84h-1.75Z"/><path class="cls-10" d="M1014.34,364.47a.89.89,0,0,0-.12-.43.88.88,0,0,1-.82.54.87.87,0,0,1-.82-.54.89.89,0,0,0-.12.43v1.84h-1.75v-1.84a2.62,2.62,0,0,1,1.81-2.47v-2.69a2.64,2.64,0,0,1-1.81-2.48v-1.59h1.75v1.59a.81.81,0,0,0,.06.31V357a.88.88,0,0,1,1.76,0v.14a1.07,1.07,0,0,0,.06-.31v-1.59h1.75v1.59a2.64,2.64,0,0,1-1.81,2.48V362a2.62,2.62,0,0,1,1.81,2.47v1.84h-1.75Z"/><path class="cls-10" d="M1014.34,375.54a.93.93,0,0,0-.12-.44.87.87,0,0,1-.82.55.86.86,0,0,1-.82-.55.93.93,0,0,0-.12.44v1.83h-1.75v-1.83a2.64,2.64,0,0,1,1.81-2.48v-2.68a2.64,2.64,0,0,1-1.81-2.48v-1.59h1.75v1.59a.81.81,0,0,0,.06.31v-.14a.88.88,0,0,1,1.76,0v.14a1.07,1.07,0,0,0,.06-.31v-1.59h1.75v1.59a2.64,2.64,0,0,1-1.81,2.48v2.68a2.64,2.64,0,0,1,1.81,2.48v1.83h-1.75Z"/><path class="cls-10" d="M1014.34,386.61a.93.93,0,0,0-.12-.44.87.87,0,0,1-.82.55.86.86,0,0,1-.82-.55.93.93,0,0,0-.12.44v1.83h-1.75v-1.83a2.64,2.64,0,0,1,1.81-2.48v-2.68a2.64,2.64,0,0,1-1.81-2.48v-1.6h1.75V379a.81.81,0,0,0,.06.31v-.14a.88.88,0,0,1,1.76,0v.14a1.07,1.07,0,0,0,.06-.31v-1.6h1.75V379a2.64,2.64,0,0,1-1.81,2.48v2.68a2.64,2.64,0,0,1,1.81,2.48v1.83h-1.75Z"/><path class="cls-10" d="M1014.34,397.68a.93.93,0,0,0-.12-.44.89.89,0,0,1-.82.55.88.88,0,0,1-.82-.55.93.93,0,0,0-.12.44v1.83h-1.75v-1.83a2.64,2.64,0,0,1,1.81-2.48v-2.68a2.65,2.65,0,0,1-1.81-2.48v-1.6h1.75V390a.81.81,0,0,0,.06.31v-.14a.88.88,0,0,1,1.76,0v.14a1.07,1.07,0,0,0,.06-.31v-1.6h1.75V390a2.65,2.65,0,0,1-1.81,2.48v2.68a2.64,2.64,0,0,1,1.81,2.48v1.83h-1.75Z"/><path class="cls-10" d="M1014.34,408.75a.93.93,0,0,0-.12-.44.89.89,0,0,1-.82.55.88.88,0,0,1-.82-.55.93.93,0,0,0-.12.44v1.83h-1.75v-1.83a2.64,2.64,0,0,1,1.81-2.48v-2.69a2.63,2.63,0,0,1-1.81-2.47v-1.6h1.75v1.6a.81.81,0,0,0,.06.31v-.14a.88.88,0,0,1,1.76,0v.13a.94.94,0,0,0,.06-.3v-1.6h1.75v1.6a2.63,2.63,0,0,1-1.81,2.47v2.69a2.64,2.64,0,0,1,1.81,2.48v1.83h-1.75Z"/><path class="cls-10" d="M1014.34,419.82a.93.93,0,0,0-.12-.44.89.89,0,0,1-.82.55.88.88,0,0,1-.82-.55.93.93,0,0,0-.12.44v1.83h-1.75v-1.83a2.64,2.64,0,0,1,1.81-2.48v-2.69a2.63,2.63,0,0,1-1.81-2.47v-1.6h1.75v1.6a.85.85,0,0,0,.06.31v-.14a.88.88,0,0,1,1.76,0v.13a1,1,0,0,0,.06-.3v-1.6h1.75v1.6a2.63,2.63,0,0,1-1.81,2.47v2.69a2.64,2.64,0,0,1,1.81,2.48v1.83h-1.75Z"/><path class="cls-10" d="M1014.34,430.89a.93.93,0,0,0-.12-.44.89.89,0,0,1-.82.55.88.88,0,0,1-.82-.55.93.93,0,0,0-.12.44v1.83h-1.75v-1.83a2.64,2.64,0,0,1,1.81-2.48v-2.69a2.63,2.63,0,0,1-1.81-2.47v-1.6h1.75v1.6a.77.77,0,0,0,.06.3v-.13a.88.88,0,0,1,1.76,0v.13a1,1,0,0,0,.06-.3v-1.6h1.75v1.6a2.63,2.63,0,0,1-1.81,2.47v2.69a2.64,2.64,0,0,1,1.81,2.48v1.83h-1.75Z"/><path class="cls-10" d="M1014.34,442a.93.93,0,0,0-.12-.44.89.89,0,0,1-.82.55.88.88,0,0,1-.82-.55.93.93,0,0,0-.12.44v1.83h-1.75V442a2.63,2.63,0,0,1,1.81-2.48v-2.69a2.63,2.63,0,0,1-1.81-2.47v-1.6h1.75v1.6a.77.77,0,0,0,.06.3v-.13a.88.88,0,0,1,1.76,0v.13a1,1,0,0,0,.06-.3v-1.6h1.75v1.6a2.63,2.63,0,0,1-1.81,2.47v2.69a2.63,2.63,0,0,1,1.81,2.48v1.83h-1.75Z"/><path class="cls-10" d="M1014.34,453a.93.93,0,0,0-.12-.43.89.89,0,0,1-.82.55.88.88,0,0,1-.82-.55.93.93,0,0,0-.12.43v1.84h-1.75V453a2.63,2.63,0,0,1,1.81-2.47v-2.69a2.64,2.64,0,0,1-1.81-2.48v-1.59h1.75v1.59a.81.81,0,0,0,.06.31v-.13a.88.88,0,0,1,1.76,0v.13a1.07,1.07,0,0,0,.06-.31v-1.59h1.75v1.59a2.64,2.64,0,0,1-1.81,2.48v2.69a2.63,2.63,0,0,1,1.81,2.47v1.84h-1.75Z"/><path class="cls-10" d="M1014.34,464.09a.89.89,0,0,0-.12-.43.89.89,0,0,1-.82.55.88.88,0,0,1-.82-.55.89.89,0,0,0-.12.43v1.84h-1.75v-1.84a2.63,2.63,0,0,1,1.81-2.47v-2.69a2.64,2.64,0,0,1-1.81-2.48v-1.59h1.75v1.59a.81.81,0,0,0,.06.31v-.14a.88.88,0,0,1,1.76,0v.14a1.07,1.07,0,0,0,.06-.31v-1.59h1.75v1.59a2.64,2.64,0,0,1-1.81,2.48v2.69a2.63,2.63,0,0,1,1.81,2.47v1.84h-1.75Z"/><path class="cls-10" d="M1014.34,475.16a.89.89,0,0,0-.12-.43.89.89,0,0,1-.82.55.88.88,0,0,1-.82-.55.89.89,0,0,0-.12.43V477h-1.75v-1.84a2.62,2.62,0,0,1,1.81-2.47V470a2.64,2.64,0,0,1-1.81-2.48v-1.59h1.75v1.59a.81.81,0,0,0,.06.31v-.14a.88.88,0,0,1,1.76,0v.14a1.07,1.07,0,0,0,.06-.31v-1.59h1.75v1.59a2.64,2.64,0,0,1-1.81,2.48v2.69a2.62,2.62,0,0,1,1.81,2.47V477h-1.75Z"/><path class="cls-10" d="M1014.34,486.23a.89.89,0,0,0-.12-.43.88.88,0,0,1-.82.54.87.87,0,0,1-.82-.54.89.89,0,0,0-.12.43v1.83h-1.75v-1.83a2.64,2.64,0,0,1,1.81-2.48v-2.68a2.64,2.64,0,0,1-1.81-2.48V477h1.75v1.59a.81.81,0,0,0,.06.31v-.14a.88.88,0,0,1,1.76,0v.14a1.07,1.07,0,0,0,.06-.31V477h1.75v1.59a2.64,2.64,0,0,1-1.81,2.48v2.68a2.64,2.64,0,0,1,1.81,2.48v1.83h-1.75Z"/><path class="cls-10" d="M1014.34,497.3a.93.93,0,0,0-.12-.44.87.87,0,0,1-.82.55.86.86,0,0,1-.82-.55.93.93,0,0,0-.12.44v1.83h-1.75V497.3a2.64,2.64,0,0,1,1.81-2.48v-2.68a2.64,2.64,0,0,1-1.81-2.48v-1.6h1.75v1.6a.81.81,0,0,0,.06.31v-.14a.88.88,0,0,1,1.76,0V490a1.07,1.07,0,0,0,.06-.31v-1.6h1.75v1.6a2.64,2.64,0,0,1-1.81,2.48v2.68a2.64,2.64,0,0,1,1.81,2.48v1.83h-1.75Z"/><path class="cls-10" d="M1014.34,508.37a.93.93,0,0,0-.12-.44.89.89,0,0,1-.82.55.88.88,0,0,1-.82-.55.93.93,0,0,0-.12.44v1.83h-1.75v-1.83a2.64,2.64,0,0,1,1.81-2.48v-2.68a2.64,2.64,0,0,1-1.81-2.48v-1.6h1.75v1.6a.81.81,0,0,0,.06.31v-.14a.88.88,0,0,1,1.76,0V501a1.07,1.07,0,0,0,.06-.31v-1.6h1.75v1.6a2.64,2.64,0,0,1-1.81,2.48v2.68a2.64,2.64,0,0,1,1.81,2.48v1.83h-1.75Z"/><path class="cls-10" d="M1014.34,519.44a.93.93,0,0,0-.12-.44.89.89,0,0,1-.82.55.88.88,0,0,1-.82-.55.93.93,0,0,0-.12.44v1.83h-1.75v-1.83a2.64,2.64,0,0,1,1.81-2.48v-2.69a2.63,2.63,0,0,1-1.81-2.47v-1.6h1.75v1.6a.81.81,0,0,0,.06.31V512a.88.88,0,0,1,1.76,0v.13a.94.94,0,0,0,.06-.3v-1.6h1.75v1.6a2.63,2.63,0,0,1-1.81,2.47V517a2.64,2.64,0,0,1,1.81,2.48v1.83h-1.75Z"/><line class="cls-10" x1="1051.57" y1="322.03" x2="1051.57" y2="521.27"/><path class="cls-10" d="M1052.5,331.26a.92.92,0,0,0-.11-.43.89.89,0,0,1-.82.55.88.88,0,0,1-.82-.55.93.93,0,0,0-.12.43v1.84h-1.75v-1.84a2.63,2.63,0,0,1,1.81-2.47V326.1a2.63,2.63,0,0,1-1.81-2.48V322h1.75v1.59a.78.78,0,0,0,.06.31v-.13a.88.88,0,0,1,1.76,0v.13a1,1,0,0,0,0-.31V322h1.76v1.59a2.63,2.63,0,0,1-1.81,2.48v2.69a2.63,2.63,0,0,1,1.81,2.47v1.84h-1.76Z"/><path class="cls-10" d="M1052.5,342.33a.89.89,0,0,0-.11-.43.89.89,0,0,1-.82.55.88.88,0,0,1-.82-.55.89.89,0,0,0-.12.43v1.84h-1.75v-1.84a2.63,2.63,0,0,1,1.81-2.47v-2.69a2.64,2.64,0,0,1-1.81-2.48V333.1h1.75v1.59a.81.81,0,0,0,.06.31v-.13a.88.88,0,0,1,1.76,0V335a1.06,1.06,0,0,0,0-.31V333.1h1.76v1.59a2.64,2.64,0,0,1-1.81,2.48v2.69a2.63,2.63,0,0,1,1.81,2.47v1.84h-1.76Z"/><path class="cls-10" d="M1052.5,353.4a.89.89,0,0,0-.11-.43.89.89,0,0,1-.82.55.88.88,0,0,1-.82-.55.89.89,0,0,0-.12.43v1.84h-1.75V353.4a2.63,2.63,0,0,1,1.81-2.47v-2.69a2.64,2.64,0,0,1-1.81-2.48v-1.59h1.75v1.59a.81.81,0,0,0,.06.31v-.14a.88.88,0,0,1,1.76,0v.14a1.06,1.06,0,0,0,0-.31v-1.59h1.76v1.59a2.64,2.64,0,0,1-1.81,2.48v2.69a2.63,2.63,0,0,1,1.81,2.47v1.84h-1.76Z"/><path class="cls-10" d="M1052.5,364.47a.89.89,0,0,0-.11-.43.88.88,0,0,1-.82.54.87.87,0,0,1-.82-.54.89.89,0,0,0-.12.43v1.84h-1.75v-1.84a2.62,2.62,0,0,1,1.81-2.47v-2.69a2.64,2.64,0,0,1-1.81-2.48v-1.59h1.75v1.59a.81.81,0,0,0,.06.31V357a.88.88,0,0,1,1.76,0v.14a1.06,1.06,0,0,0,0-.31v-1.59h1.76v1.59a2.64,2.64,0,0,1-1.81,2.48V362a2.62,2.62,0,0,1,1.81,2.47v1.84h-1.76Z"/><path class="cls-10" d="M1052.5,375.54a.93.93,0,0,0-.11-.44.87.87,0,0,1-.82.55.86.86,0,0,1-.82-.55.93.93,0,0,0-.12.44v1.83h-1.75v-1.83a2.64,2.64,0,0,1,1.81-2.48v-2.68a2.64,2.64,0,0,1-1.81-2.48v-1.59h1.75v1.59a.81.81,0,0,0,.06.31v-.14a.88.88,0,0,1,1.76,0v.14a1.06,1.06,0,0,0,0-.31v-1.59h1.76v1.59a2.64,2.64,0,0,1-1.81,2.48v2.68a2.64,2.64,0,0,1,1.81,2.48v1.83h-1.76Z"/><path class="cls-10" d="M1052.5,386.61a.93.93,0,0,0-.11-.44.87.87,0,0,1-.82.55.86.86,0,0,1-.82-.55.93.93,0,0,0-.12.44v1.83h-1.75v-1.83a2.64,2.64,0,0,1,1.81-2.48v-2.68a2.64,2.64,0,0,1-1.81-2.48v-1.6h1.75V379a.81.81,0,0,0,.06.31v-.14a.88.88,0,0,1,1.76,0v.14a1.06,1.06,0,0,0,0-.31v-1.6h1.76V379a2.64,2.64,0,0,1-1.81,2.48v2.68a2.64,2.64,0,0,1,1.81,2.48v1.83h-1.76Z"/><path class="cls-10" d="M1052.5,397.68a.93.93,0,0,0-.11-.44.89.89,0,0,1-.82.55.88.88,0,0,1-.82-.55.93.93,0,0,0-.12.44v1.83h-1.75v-1.83a2.64,2.64,0,0,1,1.81-2.48v-2.68a2.65,2.65,0,0,1-1.81-2.48v-1.6h1.75V390a.81.81,0,0,0,.06.31v-.14a.88.88,0,0,1,1.76,0v.14a1.06,1.06,0,0,0,0-.31v-1.6h1.76V390a2.65,2.65,0,0,1-1.81,2.48v2.68a2.64,2.64,0,0,1,1.81,2.48v1.83h-1.76Z"/><path class="cls-10" d="M1052.5,408.75a.93.93,0,0,0-.11-.44.89.89,0,0,1-.82.55.88.88,0,0,1-.82-.55.93.93,0,0,0-.12.44v1.83h-1.75v-1.83a2.64,2.64,0,0,1,1.81-2.48v-2.69a2.63,2.63,0,0,1-1.81-2.47v-1.6h1.75v1.6a.81.81,0,0,0,.06.31v-.14a.88.88,0,0,1,1.76,0v.13a.94.94,0,0,0,0-.3v-1.6h1.76v1.6a2.63,2.63,0,0,1-1.81,2.47v2.69a2.64,2.64,0,0,1,1.81,2.48v1.83h-1.76Z"/><path class="cls-10" d="M1052.5,419.82a.93.93,0,0,0-.11-.44.89.89,0,0,1-.82.55.88.88,0,0,1-.82-.55.93.93,0,0,0-.12.44v1.83h-1.75v-1.83a2.64,2.64,0,0,1,1.81-2.48v-2.69a2.63,2.63,0,0,1-1.81-2.47v-1.6h1.75v1.6a.85.85,0,0,0,.06.31v-.14a.88.88,0,0,1,1.76,0v.13a1,1,0,0,0,0-.3v-1.6h1.76v1.6a2.63,2.63,0,0,1-1.81,2.47v2.69a2.64,2.64,0,0,1,1.81,2.48v1.83h-1.76Z"/><path class="cls-10" d="M1052.5,430.89a.93.93,0,0,0-.11-.44.89.89,0,0,1-.82.55.88.88,0,0,1-.82-.55.93.93,0,0,0-.12.44v1.83h-1.75v-1.83a2.64,2.64,0,0,1,1.81-2.48v-2.69a2.63,2.63,0,0,1-1.81-2.47v-1.6h1.75v1.6a.77.77,0,0,0,.06.3v-.13a.88.88,0,0,1,1.76,0v.13a1,1,0,0,0,0-.3v-1.6h1.76v1.6a2.63,2.63,0,0,1-1.81,2.47v2.69a2.64,2.64,0,0,1,1.81,2.48v1.83h-1.76Z"/><path class="cls-10" d="M1052.5,442a.93.93,0,0,0-.11-.44.89.89,0,0,1-.82.55.88.88,0,0,1-.82-.55.93.93,0,0,0-.12.44v1.83h-1.75V442a2.63,2.63,0,0,1,1.81-2.48v-2.69a2.63,2.63,0,0,1-1.81-2.47v-1.6h1.75v1.6a.77.77,0,0,0,.06.3v-.13a.88.88,0,0,1,1.76,0v.13a1,1,0,0,0,0-.3v-1.6h1.76v1.6a2.63,2.63,0,0,1-1.81,2.47v2.69a2.63,2.63,0,0,1,1.81,2.48v1.83h-1.76Z"/><path class="cls-10" d="M1052.5,453a.92.92,0,0,0-.11-.43.89.89,0,0,1-.82.55.88.88,0,0,1-.82-.55.93.93,0,0,0-.12.43v1.84h-1.75V453a2.63,2.63,0,0,1,1.81-2.47v-2.69a2.64,2.64,0,0,1-1.81-2.48v-1.59h1.75v1.59a.81.81,0,0,0,.06.31v-.13a.88.88,0,0,1,1.76,0v.13a1.06,1.06,0,0,0,0-.31v-1.59h1.76v1.59a2.64,2.64,0,0,1-1.81,2.48v2.69a2.63,2.63,0,0,1,1.81,2.47v1.84h-1.76Z"/><path class="cls-10" d="M1052.5,464.09a.89.89,0,0,0-.11-.43.89.89,0,0,1-.82.55.88.88,0,0,1-.82-.55.89.89,0,0,0-.12.43v1.84h-1.75v-1.84a2.63,2.63,0,0,1,1.81-2.47v-2.69a2.64,2.64,0,0,1-1.81-2.48v-1.59h1.75v1.59a.81.81,0,0,0,.06.31v-.14a.88.88,0,0,1,1.76,0v.14a1.06,1.06,0,0,0,0-.31v-1.59h1.76v1.59a2.64,2.64,0,0,1-1.81,2.48v2.69a2.63,2.63,0,0,1,1.81,2.47v1.84h-1.76Z"/><path class="cls-10" d="M1052.5,475.16a.89.89,0,0,0-.11-.43.89.89,0,0,1-.82.55.88.88,0,0,1-.82-.55.89.89,0,0,0-.12.43V477h-1.75v-1.84a2.62,2.62,0,0,1,1.81-2.47V470a2.64,2.64,0,0,1-1.81-2.48v-1.59h1.75v1.59a.81.81,0,0,0,.06.31v-.14a.88.88,0,0,1,1.76,0v.14a1.06,1.06,0,0,0,0-.31v-1.59h1.76v1.59a2.64,2.64,0,0,1-1.81,2.48v2.69a2.62,2.62,0,0,1,1.81,2.47V477h-1.76Z"/><path class="cls-10" d="M1052.5,486.23a.89.89,0,0,0-.11-.43.88.88,0,0,1-.82.54.87.87,0,0,1-.82-.54.89.89,0,0,0-.12.43v1.83h-1.75v-1.83a2.64,2.64,0,0,1,1.81-2.48v-2.68a2.64,2.64,0,0,1-1.81-2.48V477h1.75v1.59a.81.81,0,0,0,.06.31v-.14a.88.88,0,0,1,1.76,0v.14a1.06,1.06,0,0,0,0-.31V477h1.76v1.59a2.64,2.64,0,0,1-1.81,2.48v2.68a2.64,2.64,0,0,1,1.81,2.48v1.83h-1.76Z"/><path class="cls-10" d="M1052.5,497.3a.93.93,0,0,0-.11-.44.87.87,0,0,1-.82.55.86.86,0,0,1-.82-.55.93.93,0,0,0-.12.44v1.83h-1.75V497.3a2.64,2.64,0,0,1,1.81-2.48v-2.68a2.64,2.64,0,0,1-1.81-2.48v-1.6h1.75v1.6a.81.81,0,0,0,.06.31v-.14a.88.88,0,0,1,1.76,0V490a1.06,1.06,0,0,0,0-.31v-1.6h1.76v1.6a2.64,2.64,0,0,1-1.81,2.48v2.68a2.64,2.64,0,0,1,1.81,2.48v1.83h-1.76Z"/><path class="cls-10" d="M1052.5,508.37a.93.93,0,0,0-.11-.44.89.89,0,0,1-.82.55.88.88,0,0,1-.82-.55.93.93,0,0,0-.12.44v1.83h-1.75v-1.83a2.64,2.64,0,0,1,1.81-2.48v-2.68a2.64,2.64,0,0,1-1.81-2.48v-1.6h1.75v1.6a.81.81,0,0,0,.06.31v-.14a.88.88,0,0,1,1.76,0V501a1.06,1.06,0,0,0,0-.31v-1.6h1.76v1.6a2.64,2.64,0,0,1-1.81,2.48v2.68a2.64,2.64,0,0,1,1.81,2.48v1.83h-1.76Z"/><path class="cls-10" d="M1052.5,519.44a.93.93,0,0,0-.11-.44.89.89,0,0,1-.82.55.88.88,0,0,1-.82-.55.93.93,0,0,0-.12.44v1.83h-1.75v-1.83a2.64,2.64,0,0,1,1.81-2.48v-2.69a2.63,2.63,0,0,1-1.81-2.47v-1.6h1.75v1.6a.81.81,0,0,0,.06.31V512a.88.88,0,0,1,1.76,0v.13a.94.94,0,0,0,0-.3v-1.6h1.76v1.6a2.63,2.63,0,0,1-1.81,2.47V517a2.64,2.64,0,0,1,1.81,2.48v1.83h-1.76Z"/><line class="cls-10" x1="1108.64" y1="322.03" x2="1108.64" y2="521.27"/><path class="cls-10" d="M1109.58,331.26a.82.82,0,0,0-.12-.43.88.88,0,0,1-.82.55.86.86,0,0,1-.81-.55.82.82,0,0,0-.12.43v1.84H1106v-1.84a2.62,2.62,0,0,1,1.82-2.47V326.1a2.62,2.62,0,0,1-1.82-2.48V322h1.76v1.59a.78.78,0,0,0,.06.31v-.13a.88.88,0,0,1,1.75,0v.13a.78.78,0,0,0,.06-.31V322h1.76v1.59a2.62,2.62,0,0,1-1.82,2.48v2.69a2.62,2.62,0,0,1,1.82,2.47v1.84h-1.76Z"/><path class="cls-10" d="M1109.58,342.33a.8.8,0,0,0-.12-.43.88.88,0,0,1-.82.55.86.86,0,0,1-.81-.55.8.8,0,0,0-.12.43v1.84H1106v-1.84a2.62,2.62,0,0,1,1.82-2.47v-2.69a2.63,2.63,0,0,1-1.82-2.48V333.1h1.76v1.59a.81.81,0,0,0,.06.31v-.13a.88.88,0,0,1,1.75,0V335a.81.81,0,0,0,.06-.31V333.1h1.76v1.59a2.63,2.63,0,0,1-1.82,2.48v2.69a2.62,2.62,0,0,1,1.82,2.47v1.84h-1.76Z"/><path class="cls-10" d="M1109.58,353.4a.8.8,0,0,0-.12-.43.88.88,0,0,1-.82.55.86.86,0,0,1-.81-.55.8.8,0,0,0-.12.43v1.84H1106V353.4a2.62,2.62,0,0,1,1.82-2.47v-2.69a2.63,2.63,0,0,1-1.82-2.48v-1.59h1.76v1.59a.81.81,0,0,0,.06.31v-.14a.88.88,0,0,1,1.75,0v.14a.81.81,0,0,0,.06-.31v-1.59h1.76v1.59a2.63,2.63,0,0,1-1.82,2.48v2.69a2.62,2.62,0,0,1,1.82,2.47v1.84h-1.76Z"/><path class="cls-10" d="M1109.58,364.47a.8.8,0,0,0-.12-.43.87.87,0,0,1-.82.54.86.86,0,0,1-.81-.54.8.8,0,0,0-.12.43v1.84H1106v-1.84a2.61,2.61,0,0,1,1.82-2.47v-2.69a2.63,2.63,0,0,1-1.82-2.48v-1.59h1.76v1.59a.81.81,0,0,0,.06.31V357a.88.88,0,0,1,1.75,0v.14a.81.81,0,0,0,.06-.31v-1.59h1.76v1.59a2.63,2.63,0,0,1-1.82,2.48V362a2.61,2.61,0,0,1,1.82,2.47v1.84h-1.76Z"/><path class="cls-10" d="M1109.58,375.54a.83.83,0,0,0-.12-.44.86.86,0,0,1-.82.55.85.85,0,0,1-.81-.55.83.83,0,0,0-.12.44v1.83H1106v-1.83a2.63,2.63,0,0,1,1.82-2.48v-2.68a2.63,2.63,0,0,1-1.82-2.48v-1.59h1.76v1.59a.81.81,0,0,0,.06.31v-.14a.88.88,0,0,1,1.75,0v.14a.81.81,0,0,0,.06-.31v-1.59h1.76v1.59a2.63,2.63,0,0,1-1.82,2.48v2.68a2.63,2.63,0,0,1,1.82,2.48v1.83h-1.76Z"/><path class="cls-10" d="M1109.58,386.61a.83.83,0,0,0-.12-.44.86.86,0,0,1-.82.55.85.85,0,0,1-.81-.55.83.83,0,0,0-.12.44v1.83H1106v-1.83a2.63,2.63,0,0,1,1.82-2.48v-2.68A2.63,2.63,0,0,1,1106,379v-1.6h1.76V379a.81.81,0,0,0,.06.31v-.14a.88.88,0,0,1,1.75,0v.14a.81.81,0,0,0,.06-.31v-1.6h1.76V379a2.63,2.63,0,0,1-1.82,2.48v2.68a2.63,2.63,0,0,1,1.82,2.48v1.83h-1.76Z"/><path class="cls-10" d="M1109.58,397.68a.83.83,0,0,0-.12-.44.88.88,0,0,1-.82.55.86.86,0,0,1-.81-.55.83.83,0,0,0-.12.44v1.83H1106v-1.83a2.63,2.63,0,0,1,1.82-2.48v-2.68A2.64,2.64,0,0,1,1106,390v-1.6h1.76V390a.81.81,0,0,0,.06.31v-.14a.88.88,0,0,1,1.75,0v.14a.81.81,0,0,0,.06-.31v-1.6h1.76V390a2.64,2.64,0,0,1-1.82,2.48v2.68a2.63,2.63,0,0,1,1.82,2.48v1.83h-1.76Z"/><path class="cls-10" d="M1109.58,408.75a.83.83,0,0,0-.12-.44.88.88,0,0,1-.82.55.86.86,0,0,1-.81-.55.83.83,0,0,0-.12.44v1.83H1106v-1.83a2.63,2.63,0,0,1,1.82-2.48v-2.69a2.62,2.62,0,0,1-1.82-2.47v-1.6h1.76v1.6a.81.81,0,0,0,.06.31v-.14a.88.88,0,0,1,1.75,0v.13a.73.73,0,0,0,.06-.3v-1.6h1.76v1.6a2.62,2.62,0,0,1-1.82,2.47v2.69a2.63,2.63,0,0,1,1.82,2.48v1.83h-1.76Z"/><path class="cls-10" d="M1109.58,419.82a.83.83,0,0,0-.12-.44.88.88,0,0,1-.82.55.86.86,0,0,1-.81-.55.83.83,0,0,0-.12.44v1.83H1106v-1.83a2.63,2.63,0,0,1,1.82-2.48v-2.69a2.62,2.62,0,0,1-1.82-2.47v-1.6h1.76v1.6a.85.85,0,0,0,.06.31v-.14a.88.88,0,0,1,1.75,0v.13a.77.77,0,0,0,.06-.3v-1.6h1.76v1.6a2.62,2.62,0,0,1-1.82,2.47v2.69a2.63,2.63,0,0,1,1.82,2.48v1.83h-1.76Z"/><path class="cls-10" d="M1109.58,430.89a.83.83,0,0,0-.12-.44.88.88,0,0,1-.82.55.86.86,0,0,1-.81-.55.83.83,0,0,0-.12.44v1.83H1106v-1.83a2.63,2.63,0,0,1,1.82-2.48v-2.69a2.62,2.62,0,0,1-1.82-2.47v-1.6h1.76v1.6a.77.77,0,0,0,.06.3v-.13a.88.88,0,0,1,1.75,0v.13a.77.77,0,0,0,.06-.3v-1.6h1.76v1.6a2.62,2.62,0,0,1-1.82,2.47v2.69a2.63,2.63,0,0,1,1.82,2.48v1.83h-1.76Z"/><path class="cls-10" d="M1109.58,442a.83.83,0,0,0-.12-.44.88.88,0,0,1-.82.55.86.86,0,0,1-.81-.55.83.83,0,0,0-.12.44v1.83H1106V442a2.62,2.62,0,0,1,1.82-2.48v-2.69a2.62,2.62,0,0,1-1.82-2.47v-1.6h1.76v1.6a.77.77,0,0,0,.06.3v-.13a.88.88,0,0,1,1.75,0v.13a.77.77,0,0,0,.06-.3v-1.6h1.76v1.6a2.62,2.62,0,0,1-1.82,2.47v2.69a2.62,2.62,0,0,1,1.82,2.48v1.83h-1.76Z"/><path class="cls-10" d="M1109.58,453a.82.82,0,0,0-.12-.43.88.88,0,0,1-.82.55.86.86,0,0,1-.81-.55.82.82,0,0,0-.12.43v1.84H1106V453a2.62,2.62,0,0,1,1.82-2.47v-2.69a2.63,2.63,0,0,1-1.82-2.48v-1.59h1.76v1.59a.81.81,0,0,0,.06.31v-.13a.88.88,0,0,1,1.75,0v.13a.81.81,0,0,0,.06-.31v-1.59h1.76v1.59a2.63,2.63,0,0,1-1.82,2.48v2.69a2.62,2.62,0,0,1,1.82,2.47v1.84h-1.76Z"/><path class="cls-10" d="M1109.58,464.09a.8.8,0,0,0-.12-.43.88.88,0,0,1-.82.55.86.86,0,0,1-.81-.55.8.8,0,0,0-.12.43v1.84H1106v-1.84a2.62,2.62,0,0,1,1.82-2.47v-2.69a2.63,2.63,0,0,1-1.82-2.48v-1.59h1.76v1.59a.81.81,0,0,0,.06.31v-.14a.88.88,0,0,1,1.75,0v.14a.81.81,0,0,0,.06-.31v-1.59h1.76v1.59a2.63,2.63,0,0,1-1.82,2.48v2.69a2.62,2.62,0,0,1,1.82,2.47v1.84h-1.76Z"/><path class="cls-10" d="M1109.58,475.16a.8.8,0,0,0-.12-.43.88.88,0,0,1-.82.55.86.86,0,0,1-.81-.55.8.8,0,0,0-.12.43V477H1106v-1.84a2.61,2.61,0,0,1,1.82-2.47V470a2.63,2.63,0,0,1-1.82-2.48v-1.59h1.76v1.59a.81.81,0,0,0,.06.31v-.14a.88.88,0,0,1,1.75,0v.14a.81.81,0,0,0,.06-.31v-1.59h1.76v1.59a2.63,2.63,0,0,1-1.82,2.48v2.69a2.61,2.61,0,0,1,1.82,2.47V477h-1.76Z"/><path class="cls-10" d="M1109.58,486.23a.8.8,0,0,0-.12-.43.87.87,0,0,1-.82.54.86.86,0,0,1-.81-.54.8.8,0,0,0-.12.43v1.83H1106v-1.83a2.63,2.63,0,0,1,1.82-2.48v-2.68a2.63,2.63,0,0,1-1.82-2.48V477h1.76v1.59a.81.81,0,0,0,.06.31v-.14a.88.88,0,0,1,1.75,0v.14a.81.81,0,0,0,.06-.31V477h1.76v1.59a2.63,2.63,0,0,1-1.82,2.48v2.68a2.63,2.63,0,0,1,1.82,2.48v1.83h-1.76Z"/><path class="cls-10" d="M1109.58,497.3a.83.83,0,0,0-.12-.44.86.86,0,0,1-.82.55.85.85,0,0,1-.81-.55.83.83,0,0,0-.12.44v1.83H1106V497.3a2.63,2.63,0,0,1,1.82-2.48v-2.68a2.63,2.63,0,0,1-1.82-2.48v-1.6h1.76v1.6a.81.81,0,0,0,.06.31v-.14a.88.88,0,0,1,1.75,0V490a.81.81,0,0,0,.06-.31v-1.6h1.76v1.6a2.63,2.63,0,0,1-1.82,2.48v2.68a2.63,2.63,0,0,1,1.82,2.48v1.83h-1.76Z"/><path class="cls-10" d="M1109.58,508.37a.83.83,0,0,0-.12-.44.88.88,0,0,1-.82.55.86.86,0,0,1-.81-.55.83.83,0,0,0-.12.44v1.83H1106v-1.83a2.63,2.63,0,0,1,1.82-2.48v-2.68a2.63,2.63,0,0,1-1.82-2.48v-1.6h1.76v1.6a.81.81,0,0,0,.06.31v-.14a.88.88,0,0,1,1.75,0V501a.81.81,0,0,0,.06-.31v-1.6h1.76v1.6a2.63,2.63,0,0,1-1.82,2.48v2.68a2.63,2.63,0,0,1,1.82,2.48v1.83h-1.76Z"/><path class="cls-10" d="M1109.58,519.44a.83.83,0,0,0-.12-.44.88.88,0,0,1-.82.55.86.86,0,0,1-.81-.55.83.83,0,0,0-.12.44v1.83H1106v-1.83a2.63,2.63,0,0,1,1.82-2.48v-2.69a2.62,2.62,0,0,1-1.82-2.47v-1.6h1.76v1.6a.81.81,0,0,0,.06.31V512a.88.88,0,0,1,1.75,0v.13a.73.73,0,0,0,.06-.3v-1.6h1.76v1.6a2.62,2.62,0,0,1-1.82,2.47V517a2.63,2.63,0,0,1,1.82,2.48v1.83h-1.76Z"/><rect class="cls-6" x="937.64" y="521.49" width="83.87" height="4.35"/><rect class="cls-5" x="937.64" y="521.49" width="36.05" height="4.35"/><rect class="cls-6" x="1032.87" y="521.49" width="83.87" height="4.35"/><rect class="cls-5" x="1032.87" y="521.49" width="36.05" height="4.35"/><polygon class="cls-6" points="992.26 574.41 922.7 324.04 922.84 323.55 922.56 323.55 910.48 323.55 910.21 323.55 910.34 324.04 840.78 574.41 853.14 574.41 916.52 346.28 979.9 574.41 992.26 574.41"/><polygon class="cls-5" points="979.57 574.41 910.01 324.04 910.15 323.55 909.88 323.55 897.79 323.55 897.52 323.55 897.65 324.04 828.09 574.41 840.45 574.41 903.83 346.28 967.21 574.41 979.57 574.41"/><path class="cls-14" d="M1308.23,867.48l-8.49,8.33A12.44,12.44,0,0,1,1282,893.23l-8.49,8.31a24.33,24.33,0,0,0,34.75-34.06Z"/><path class="cls-15" d="M1308.23,867.48l-8.49,8.33A12.44,12.44,0,1,0,1282,893.23l-8.49,8.31a24.33,24.33,0,1,1,34.75-34.06Z"/><path class="cls-15" d="M1263.21,893.14a12.45,12.45,0,0,1-15.69,1.64l-8.81,8.23a24.34,24.34,0,0,0,31.34,0Zm-8.84-33.09a24.14,24.14,0,0,0-15.49,5.57l8.82,8.25a12.43,12.43,0,0,1,15.69,1.94l0,0,6.7-10A24.26,24.26,0,0,0,1254.37,860.05Z"/><path class="cls-14" d="M1241.93,884.38a12.44,12.44,0,0,1,5.77-10.51l-8.83-8.25a24.33,24.33,0,0,0-2.72,34.88c.31.36.64.7,1,1,.51.51,1,1,1.59,1.46l8.8-8.23a12.43,12.43,0,0,1-5.59-10.39Z"/><g id="Canvas"><g id="Group"><g id="Group-2" data-name="Group"><g id="Group-3" data-name="Group"><g id="g"><g id="path"><g id="path9_fill" data-name="path9 fill"><path id="path0_fill" data-name="path0 fill" class="cls-16" d="M526.94,886.09c0,2.34-.18,3.1-.66,3.66a2.93,2.93,0,0,1-1.95.75l.18,1.33a4.55,4.55,0,0,0,3-1.11,5.31,5.31,0,0,0,1-1.88,5.25,5.25,0,0,0,.18-2.12v-8.84h-1.79v8.21Z"/></g></g><g id="path-2" data-name="path"><g id="path10_fill" data-name="path10 fill"><path id="path1_fill" data-name="path1 fill" class="cls-16" d="M540.28,885c0,1,0,1.89.08,2.67h-1.59l-.1-1.59a3.7,3.7,0,0,1-3.25,1.82c-1.54,0-3.39-.85-3.39-4.28V878h1.79v5.33c0,1.86.58,3.1,2.19,3.1a2.69,2.69,0,0,0,1-.18,2.57,2.57,0,0,0,.82-.55,2.52,2.52,0,0,0,.55-.82,2.49,2.49,0,0,0,.18-1v-6h1.79V885Z"/></g></g><g id="path-3" data-name="path"><g id="path11_fill" data-name="path11 fill"><path id="path2_fill" data-name="path2 fill" class="cls-16" d="M543.67,881.14c0-1.24,0-2.25-.08-3.18h1.6l.08,1.67a3.87,3.87,0,0,1,3.5-1.89c2.38,0,4.16,2,4.16,5,0,3.5-2.14,5.23-4.47,5.23a3.39,3.39,0,0,1-1.71-.37,3.52,3.52,0,0,1-1.32-1.16h0v5.33h-1.76V881.14Zm1.76,2.6a4.18,4.18,0,0,0,.08.72,2.73,2.73,0,0,0,2.67,2.07c1.88,0,3-1.53,3-3.76,0-1.95-1-3.62-2.92-3.62a3,3,0,0,0-2,.93,3.11,3.11,0,0,0-.86,2Z"/></g></g><g id="path-4" data-name="path"><g id="path12_fill" data-name="path12 fill"><path id="path3_fill" data-name="path3 fill" class="cls-16" d="M556.12,878l2.15,5.75c.23.64.47,1.41.63,2,.18-.59.38-1.34.62-2l2-5.71h1.88l-2.67,6.94c-1.33,3.33-2.14,5.05-3.37,6.09a4.74,4.74,0,0,1-2.19,1.15l-.44-1.49a4.7,4.7,0,0,0,1.56-.87,5.39,5.39,0,0,0,1.51-2,1.69,1.69,0,0,0,.15-.43,1.91,1.91,0,0,0-.12-.47l-3.63-9h1.94Z"/></g></g><g id="path-5" data-name="path"><g id="path13_fill" data-name="path13 fill"><path id="path4_fill" data-name="path4 fill" class="cls-16" d="M568.1,875.16V878h2.56v1.33H568.1v5.26c0,1.2.35,1.9,1.34,1.9a4.55,4.55,0,0,0,1-.12l.08,1.33a4.3,4.3,0,0,1-1.59.24,2.49,2.49,0,0,1-1.05-.16,2.52,2.52,0,0,1-.89-.59,3.57,3.57,0,0,1-.69-2.53v-5.34h-1.52v-1.34h1.55v-2.37Z"/></g></g><g id="path-6" data-name="path"><g id="path14_fill" data-name="path14 fill"><path id="path5_fill" data-name="path5 fill" class="cls-16" d="M574,883.14a3.05,3.05,0,0,0,.18,1.34,3.13,3.13,0,0,0,3.2,2A6.4,6.4,0,0,0,580,886l.31,1.34a8,8,0,0,1-3.27.6,4.55,4.55,0,0,1-3.54-1.35,4.54,4.54,0,0,1-1-1.64,4.47,4.47,0,0,1-.25-1.92c0-2.94,1.75-5.26,4.6-5.26,3.21,0,4,2.8,4,4.59a5.75,5.75,0,0,1,0,.83h-6.9Zm5.23-1.33a2.58,2.58,0,0,0-.07-1.07,2.87,2.87,0,0,0-.51-.94,2.58,2.58,0,0,0-.86-.64,2.5,2.5,0,0,0-1-.23,2.91,2.91,0,0,0-1.93.91,3,3,0,0,0-.81,2Z"/></g></g><g id="path-7" data-name="path"><g id="path15_fill" data-name="path15 fill"><path id="path6_fill" data-name="path6 fill" class="cls-16" d="M583.53,881c0-1.15,0-2.14-.08-3h1.6v1.91h.08a3,3,0,0,1,1-1.5,3,3,0,0,1,1.67-.64,2.17,2.17,0,0,1,.51,0v1.67a3.11,3.11,0,0,0-.61,0,2.52,2.52,0,0,0-1.63.68,2.47,2.47,0,0,0-.76,1.59,4.58,4.58,0,0,0-.08.83v5.19h-1.76V881Z"/></g></g></g></g><g id="g-2" data-name="g"><g id="path-8" data-name="path"><g id="path16_fill" data-name="path16 fill"><path id="path7_fill" data-name="path7 fill" class="cls-17" d="M582.75,851.15a4.52,4.52,0,0,1-2.55,4.35,4.56,4.56,0,0,1-5-.71,4.52,4.52,0,0,1,.35-7,4.55,4.55,0,0,1,2.49-.88,4.63,4.63,0,0,1,1.73.25,4.47,4.47,0,0,1,2.55,2.3,4.54,4.54,0,0,1,.43,1.7Z"/></g></g><g id="path-9" data-name="path"><g id="path17_fill" data-name="path17 fill"><path id="path8_fill" data-name="path8 fill" class="cls-18" d="M556.36,903.42c-12,0-22.57-4.31-28-10.68a29.89,29.89,0,0,0,56.06,0C578.94,899.11,568.42,903.42,556.36,903.42Z"/></g></g><g id="path-10" data-name="path"><g id="path18_fill" data-name="path18 fill"><path id="path9_fill-2" data-name="path9 fill" class="cls-18" d="M556.36,862c12,0,22.57,4.31,28,10.68a29.88,29.88,0,0,0-56.06,0C533.79,866.32,544.29,862,556.36,862Z"/></g></g><g id="path-11" data-name="path"><g id="path19_fill" data-name="path19 fill"><path id="path10_fill-2" data-name="path10 fill" class="cls-19" d="M539.82,915.81a5.63,5.63,0,0,1-.77,3.23,5.7,5.7,0,1,1-5.17-8.57,5.58,5.58,0,0,1,2.18.31,5.64,5.64,0,0,1,1.9,1.13,5.58,5.58,0,0,1,1.32,1.76,5.68,5.68,0,0,1,.54,2.14Z"/></g></g><g id="path-12" data-name="path"><g id="path20_fill" data-name="path20 fill"><path id="path11_fill-2" data-name="path11 fill" class="cls-20" d="M529.7,860.57a3.27,3.27,0,0,1-3.33-3.82,3.15,3.15,0,0,1,.84-1.7,3.27,3.27,0,0,1,5,.31,3.29,3.29,0,0,1,.63,1.79,3.33,3.33,0,0,1-3.19,3.42Z"/></g></g></g></g></g></g><path class="cls-21" d="M315.34,202.64c1.72,1.81,3.53,3.7,5.41,5.65s3.8,3.9,5.74,5.82,3.86,3.83,5.76,5.68,3.69,3.6,5.39,5.23c-.36-2.45-.84-5.08-1.42-7.89s-1.2-5.73-1.87-8.74-1.36-6.08-2.09-9.19S330.8,193,330.05,190c3.42-1.58,5.13-2.36,8.56-3.92q2.82,12.34,4.82,24t3,22.71l-7.7,3.61c-7.62-6.95-15-14.24-22.14-21.7q1.06,8.35,1.79,16t1.28,14.87c-3,1.49-4.55,2.24-7.58,3.75q-8-7.64-15.91-16.5t-15.77-18.76c3.5-1.78,5.25-2.67,8.76-4.43q2.79,3.63,5.76,7.38t5.91,7.35q3,3.59,5.78,6.89t5.37,6q-.28-3.62-.68-7.58c-.27-2.64-.56-5.31-.87-8s-.66-5.39-1-8.06-.74-5.22-1.12-7.67Z"/><path class="cls-21" d="M353.81,210.69a20.21,20.21,0,0,1-1.95-7.88,16.56,16.56,0,0,1,1.22-6.81,15.93,15.93,0,0,1,3.72-5.4,18.34,18.34,0,0,1,5.44-3.66c4.74-2.06,9-2.3,12.83-.71s6.84,5.08,9.12,10.47c.17.41.35.87.55,1.38s.35,1,.48,1.41c-9,3.8-13.46,5.73-22.38,9.69a8.9,8.9,0,0,0,5.47,4.62q3.46,1,8.29-1.14a28.87,28.87,0,0,0,5-2.73,24.34,24.34,0,0,0,3.27-2.61c1.44,2.22,2.16,3.34,3.59,5.57a12.79,12.79,0,0,1-1.5,1.39q-1,.81-2.31,1.71c-.89.59-1.86,1.19-2.92,1.79a35.43,35.43,0,0,1-3.32,1.66,24.17,24.17,0,0,1-8.23,2.13,15.82,15.82,0,0,1-6.91-1,15.23,15.23,0,0,1-5.47-3.77A21.75,21.75,0,0,1,353.81,210.69Zm21.35-13.3a9.68,9.68,0,0,0-1.69-2.68,7.32,7.32,0,0,0-2.36-1.79,6.79,6.79,0,0,0-2.84-.64,7.84,7.84,0,0,0-3.3.75,8.22,8.22,0,0,0-2.92,2,7.91,7.91,0,0,0-1.59,2.69,8.18,8.18,0,0,0-.43,3,13.32,13.32,0,0,0,.49,3C366.37,201.19,369.3,199.91,375.16,197.39Z"/><path class="cls-21" d="M411.35,205.4a24.62,24.62,0,0,1-6.08,1.62,9.83,9.83,0,0,1-4.44-.42,7.38,7.38,0,0,1-3.2-2.32,16.44,16.44,0,0,1-2.31-4l-15.23-36.71c3-1.83,4.55-2.74,7.59-4.55l14.94,36.61a10,10,0,0,0,1.15,2.17,3.78,3.78,0,0,0,1.45,1.23,3.91,3.91,0,0,0,2,.33,14.17,14.17,0,0,0,2.78-.52Z"/><path class="cls-21" d="M410.28,186.55a19.94,19.94,0,0,1-1.47-7.13,16.49,16.49,0,0,1,1.28-6.72,16.69,16.69,0,0,1,4-5.68,20,20,0,0,1,6.7-4.08,27.21,27.21,0,0,1,10-1.89c.22,2.71.34,4.06.57,6.77a20.06,20.06,0,0,0-3.5.27,19,19,0,0,0-3.89,1.06q-4.72,1.82-6.1,5.51t.58,8.67a12.54,12.54,0,0,0,5.26,6.69c2.25,1.28,5.18,1.21,8.79-.17a23.34,23.34,0,0,0,3.85-1.9,21.38,21.38,0,0,0,3.05-2.21c1.38,2.3,2.07,3.46,3.44,5.76a18.44,18.44,0,0,1-3.52,2.6,32.36,32.36,0,0,1-5.25,2.57,22.65,22.65,0,0,1-8.05,1.67,15.1,15.1,0,0,1-12-5.49A22.53,22.53,0,0,1,410.28,186.55Z"/><path class="cls-21" d="M473.85,162.86a21.4,21.4,0,0,1,1.23,7.46,16.45,16.45,0,0,1-1.48,6.6,16,16,0,0,1-4,5.31,20,20,0,0,1-13.38,4.8,16.25,16.25,0,0,1-6.44-1.58,16.84,16.84,0,0,1-5.37-4.13,20.58,20.58,0,0,1-3.82-6.54,20.28,20.28,0,0,1-1.37-7.42,16.45,16.45,0,0,1,1.48-6.63,16.23,16.23,0,0,1,4.05-5.39,20.59,20.59,0,0,1,13.58-4.87,15.84,15.84,0,0,1,6.54,1.59,16.77,16.77,0,0,1,5.32,4.2A20.23,20.23,0,0,1,473.85,162.86Zm-8.24,2.86c-1.14-3.24-2.78-5.54-4.94-6.9a8.76,8.76,0,0,0-12.46,4.46c-.8,2.43-.61,5.25.57,8.48s2.88,5.57,5,6.94a8.58,8.58,0,0,0,12.31-4.41Q467.33,170.65,465.61,165.72Z"/><path class="cls-21" d="M501.78,152.67c-1.11-3.44-2.36-5.78-3.77-7s-3.38-1.44-5.89-.62a25.91,25.91,0,0,0-2.9,1.15q-1.55.72-2.31,1.11c3.49,10.58,5.24,15.87,8.74,26.45l-8,2.66L477,144.76a59.7,59.7,0,0,1,5.77-3.25,55.51,55.51,0,0,1,7.89-3.22,18.08,18.08,0,0,1,6.27-1.06,12.17,12.17,0,0,1,4.63,1.09,15.7,15.7,0,0,1,1.55-1.67,21,21,0,0,1,2.25-1.85,25.46,25.46,0,0,1,2.76-1.73,17.58,17.58,0,0,1,3.13-1.32,18.76,18.76,0,0,1,7.16-1,10.39,10.39,0,0,1,5.14,1.83,12.07,12.07,0,0,1,3.53,4.18,31.8,31.8,0,0,1,2.42,6c2.21,7.44,3.32,11.16,5.54,18.6-3.21,1-4.82,1.44-8,2.41-2.12-6.94-3.18-10.42-5.29-17.37-1-3.45-2.26-5.8-3.63-7.07s-3.34-1.5-5.91-.7a11.84,11.84,0,0,0-3.52,1.75,13.16,13.16,0,0,0-2.26,2,17.16,17.16,0,0,1,1.79,3.11,37.57,37.57,0,0,1,1.39,3.71c2.28,7.28,3.43,10.92,5.71,18.21-3.2,1-4.79,1.51-8,2.53C505.1,163,504,159.58,501.78,152.67Z"/><path class="cls-21" d="M538.16,142.63a20.52,20.52,0,0,1-.85-8.07,16.58,16.58,0,0,1,2.11-6.55,16,16,0,0,1,4.37-4.82,18,18,0,0,1,5.83-2.83c4.91-1.37,9.15-1,12.67,1.11s6,6,7.52,11.66c.11.42.23.91.35,1.44s.21,1,.28,1.46c-9.31,2.48-14,3.76-23.24,6.4a9,9,0,0,0,4.74,5.35c2.18,1,4.93,1,8.28.05a28.17,28.17,0,0,0,5.25-2,23.16,23.16,0,0,0,3.56-2.13l2.77,6a13.64,13.64,0,0,1-1.66,1.16c-.71.44-1.55.9-2.49,1.36s-2,.91-3.11,1.36a34.43,34.43,0,0,1-3.47,1.16,23.68,23.68,0,0,1-8.36.94,15.78,15.78,0,0,1-6.62-2,15.47,15.47,0,0,1-4.86-4.51A22.24,22.24,0,0,1,538.16,142.63Zm22.71-10.1a9.9,9.9,0,0,0-1.3-2.9,7.4,7.4,0,0,0-2.07-2.1,6.77,6.77,0,0,0-2.7-1,7.83,7.83,0,0,0-3.33.27,8.1,8.1,0,0,0-3.14,1.6,7.76,7.76,0,0,0-1.91,2.43,8,8,0,0,0-.83,2.9,13.67,13.67,0,0,0,.07,3.07C551.74,135,554.78,134.19,560.87,132.53Z"/><path class="cls-21" d="M587.64,101.84c3.22-1.34,4.83-2,8.06-3.33,1,4.06,1.46,6.09,2.44,10.14,5.11-1.23,7.67-1.83,12.79-3l1.5,6.5c-5.09,1.18-7.64,1.78-12.73,3,1.32,5.47,2,8.21,3.29,13.67.65,2.7,1.57,4.52,2.74,5.46s2.84,1.15,5,.64a16.23,16.23,0,0,0,3.84-1.38,25.92,25.92,0,0,0,2.54-1.47c1.11,2.35,1.67,3.52,2.77,5.87a32.73,32.73,0,0,1-3.42,2,21.68,21.68,0,0,1-5.22,1.87,18.18,18.18,0,0,1-6.5.54,9.6,9.6,0,0,1-4.68-1.81,11.26,11.26,0,0,1-3.17-3.91,27.37,27.37,0,0,1-2.07-5.78Q591.23,116.35,587.64,101.84Z"/><path class="cls-21" d="M654.22,113.91a21.35,21.35,0,0,1,.25,7.56,16.74,16.74,0,0,1-2.32,6.33,16,16,0,0,1-4.62,4.73,19.73,19.73,0,0,1-13.78,2.95,16.25,16.25,0,0,1-6.12-2.43,17,17,0,0,1-4.74-4.82,21,21,0,0,1-2.91-7,20.46,20.46,0,0,1-.38-7.53,16.5,16.5,0,0,1,2.32-6.38,16.17,16.17,0,0,1,4.68-4.79,18.88,18.88,0,0,1,6.7-2.76,19.07,19.07,0,0,1,7.27-.23A15.73,15.73,0,0,1,646.8,102a16.51,16.51,0,0,1,4.68,4.87A20.29,20.29,0,0,1,654.22,113.91Zm-8.47,1.73c-.7-3.36-2-5.87-4-7.51A8.62,8.62,0,0,0,629,110.88c-1.11,2.29-1.28,5.11-.54,8.47s2.1,5.91,4,7.55a8.46,8.46,0,0,0,12.68-2.71A13.27,13.27,0,0,0,645.75,115.64Z"/><path class="cls-21" d="M673.56,83.37l8.22-2.82c.73,4.11,1.09,6.17,1.82,10.28,5.16-.92,7.74-1.36,12.91-2.23l1.1,6.58c-5.14.86-7.71,1.3-12.85,2.21l2.45,13.85q.72,4.1,2.39,5.61c1.12,1,2.76,1.32,4.94,1a16.21,16.21,0,0,0,3.9-1.14,27.42,27.42,0,0,0,2.62-1.31l2.4,6a31.59,31.59,0,0,1-3.53,1.83,21.65,21.65,0,0,1-5.31,1.54,18.21,18.21,0,0,1-6.5.14,9.47,9.47,0,0,1-4.54-2.11,11.11,11.11,0,0,1-2.92-4.09,27.54,27.54,0,0,1-1.72-5.9Q676.25,98.09,673.56,83.37Z"/><path class="cls-21" d="M710.15,121.35,702.2,72.08c3.32-1.07,5-1.6,8.3-2.65,1,6.76,1.58,10.14,2.63,16.9a22.38,22.38,0,0,1,3.11-1.28,20.42,20.42,0,0,1,3.61-.88,20,20,0,0,1,7.45.06,11.61,11.61,0,0,1,5.08,2.54,12.12,12.12,0,0,1,3.16,4.59,26.68,26.68,0,0,1,1.62,6.31c1.07,7.69,1.61,11.53,2.68,19.22-3.29.46-4.94.69-8.23,1.17-1.05-7.18-1.57-10.78-2.61-18a25.23,25.23,0,0,0-1.06-4.62,8.16,8.16,0,0,0-1.7-3,5,5,0,0,0-2.58-1.42,10.06,10.06,0,0,0-3.69,0,18.88,18.88,0,0,0-3.35.84,25.62,25.62,0,0,0-2.47,1c1.68,10.85,2.53,16.28,4.21,27.13C715.07,120.56,713.43,120.82,710.15,121.35Z"/><path class="cls-21" d="M745.47,98.87a20.55,20.55,0,0,1,.37-8.11,16.43,16.43,0,0,1,3-6.15,15.74,15.74,0,0,1,5-4.1A17.8,17.8,0,0,1,760,78.58q7.56-.9,12.28,3T778,94.26c0,.44.09.93.13,1.48s0,1,0,1.49c-9.51,1-14.26,1.6-23.76,2.81a9,9,0,0,0,3.86,6c2,1.28,4.69,1.71,8.12,1.31a27.94,27.94,0,0,0,5.45-1.17,24.9,24.9,0,0,0,3.81-1.57c.73,2.55,1.1,3.83,1.82,6.38a12.53,12.53,0,0,1-1.8.89,23.93,23.93,0,0,1-2.65,1c-1,.32-2.08.61-3.25.88a34.27,34.27,0,0,1-3.58.62,23.2,23.2,0,0,1-8.35-.34,15.54,15.54,0,0,1-6.2-3,15.32,15.32,0,0,1-4.1-5.19A22.36,22.36,0,0,1,745.47,98.87Zm23.8-6.56a9.92,9.92,0,0,0-.85-3,7.44,7.44,0,0,0-1.72-2.4,6.81,6.81,0,0,0-2.5-1.43,7.51,7.51,0,0,0-3.3-.23,7.6,7.6,0,0,0-5.57,3.21,8.16,8.16,0,0,0-1.24,2.75,13.68,13.68,0,0,0-.38,3C759.93,93.41,763,93,769.27,92.31Z"/><path class="cls-21" d="M826.07,108.62a27.82,27.82,0,0,1-9.69-.82,19.38,19.38,0,0,1-7.59-4,21,21,0,0,1-5.21-7.06,29.76,29.76,0,0,1-2.52-10,25.8,25.8,0,0,1,.91-10.3,21.59,21.59,0,0,1,4.42-7.91,21.28,21.28,0,0,1,7.21-5.29,27,27,0,0,1,9.27-2.32,31.94,31.94,0,0,1,5.55,0,43.4,43.4,0,0,1,4.37.65,18.86,18.86,0,0,1,3.12.92l1.75.74c-.87,2.78-1.3,4.18-2.16,7a21.29,21.29,0,0,0-4.94-1.55,24.75,24.75,0,0,0-6.85-.39,16.53,16.53,0,0,0-5.82,1.48,12.84,12.84,0,0,0-4.49,3.44,14.05,14.05,0,0,0-2.68,5.4,20.88,20.88,0,0,0-.5,7.26,24,24,0,0,0,1.43,6.57,14.75,14.75,0,0,0,3.1,5,12.38,12.38,0,0,0,4.82,3,16.64,16.64,0,0,0,6.7.7,26.85,26.85,0,0,0,7.42-1.43,31,31,0,0,0,4.36-2c1.12,2.65,1.67,4,2.78,6.63a11.61,11.61,0,0,1-2.15,1.2,34,34,0,0,1-3.25,1.25,34.44,34.44,0,0,1-4.25,1.09A42.43,42.43,0,0,1,826.07,108.62Z"/><path class="cls-21" d="M876.26,103.67q-2.38.69-6.18,1.48a54.26,54.26,0,0,1-8.39,1,19.49,19.49,0,0,1-7.29-.8,11.68,11.68,0,0,1-4.85-3,13,13,0,0,1-2.81-4.89,25.77,25.77,0,0,1-1.15-6.38c-.47-7.72-.71-11.58-1.18-19.31l8.49-.49,1,18.06q.32,5.53,2.13,7.82t6,2.07c1,0,2.07-.15,3.19-.29a16.91,16.91,0,0,0,2.49-.45c-.51-11.15-.76-16.73-1.27-27.89,3.4-.16,5.1-.23,8.49-.36Q875.59,86.94,876.26,103.67Z"/><path class="cls-21" d="M907,85.69q-.09-5.4-1.57-7.79T900,75.6a25.74,25.74,0,0,0-3.07.27c-1.12.16-1.95.29-2.51.39.29,11.14.44,16.71.73,27.85-3.32.08-5,.13-8.29.24L885.78,71a58.25,58.25,0,0,1,6.38-1.44,54,54,0,0,1,8.38-.8,17.36,17.36,0,0,1,6.24.8,12,12,0,0,1,4.07,2.38,17.11,17.11,0,0,1,1.95-1.15,19.92,19.92,0,0,1,2.65-1.12,25.33,25.33,0,0,1,3.12-.86,16.23,16.23,0,0,1,3.33-.35A18.42,18.42,0,0,1,929,69.54a10.23,10.23,0,0,1,4.35,3.24,12.23,12.23,0,0,1,2.15,5,32.35,32.35,0,0,1,.57,6.44c0,7.76,0,11.64-.06,19.41-3.32,0-5,0-8.3,0,0-7.26,0-10.89,0-18.15q0-5.42-1.42-7.82c-.94-1.6-2.73-2.4-5.39-2.38A11.64,11.64,0,0,0,917,76a12.79,12.79,0,0,0-2.71,1.25,17.6,17.6,0,0,1,.81,3.49,37.19,37.19,0,0,1,.25,4l.22,19.08c-3.32,0-5,.06-8.3.12C907.14,96.58,907.08,93,907,85.69Z"/><path class="cls-21" d="M975.55,103.29c-1.62.34-3.71.69-6.28,1a54.79,54.79,0,0,1-8.44.43,19.51,19.51,0,0,1-7.2-1.33,11.61,11.61,0,0,1-4.62-3.37A12.76,12.76,0,0,1,946.56,95a25.33,25.33,0,0,1-.69-6.45l.2-19.34,8.5.11-.3,18.09c-.06,3.7.46,6.34,1.56,8s3,2.43,5.84,2.49c1,0,2.08,0,3.2-.06a19.44,19.44,0,0,0,2.53-.26c.28-11.17.43-16.75.72-27.92,3.4.09,5.1.14,8.49.25Q976.09,86.57,975.55,103.29Z"/><path class="cls-21" d="M998.49,105.93a23.76,23.76,0,0,1-6.09-1.08,9.52,9.52,0,0,1-3.78-2.24,7.22,7.22,0,0,1-1.89-3.45,16.55,16.55,0,0,1-.41-4.6q.79-19.86,1.57-39.71c3.46-.4,5.18-.59,8.64-1q-.88,19.76-1.79,39.5a10.72,10.72,0,0,0,.13,2.45,3.82,3.82,0,0,0,.79,1.73,3.9,3.9,0,0,0,1.63,1.13,13.87,13.87,0,0,0,2.69.69C999.38,102,999.09,103.31,998.49,105.93Z"/><path class="cls-21" d="M1016,101.86a4.82,4.82,0,0,1-1.84,3.66,6,6,0,0,1-7.77-.44,4.91,4.91,0,0,1-1.38-3.85,5,5,0,0,1,1.79-3.7,5.87,5.87,0,0,1,7.81.44A4.94,4.94,0,0,1,1016,101.86Z"/><path class="cls-21" d="M1037.13,62.93a4.43,4.43,0,0,1-1.81,3.44,5.52,5.52,0,0,1-3.76,1,5.6,5.6,0,0,1-3.64-1.57,4.46,4.46,0,0,1-1.31-3.66,4.51,4.51,0,0,1,1.8-3.52,5.63,5.63,0,0,1,3.85-1.06,5.52,5.52,0,0,1,3.58,1.58A4.47,4.47,0,0,1,1037.13,62.93Zm-4.19,44.44c-3.31-.25-5-.36-8.27-.59q1.15-17.22,2.32-34.44c3.4.23,5.09.34,8.48.59Q1034.21,90.15,1032.94,107.37Z"/><path class="cls-21" d="M1077.58,94a21.53,21.53,0,0,1-2,7.29,16.56,16.56,0,0,1-4.09,5.35,15.84,15.84,0,0,1-5.8,3.14,18.34,18.34,0,0,1-7.12.65,18.08,18.08,0,0,1-6.85-1.94,15.88,15.88,0,0,1-5.1-4.14,17.1,17.1,0,0,1-3.07-6,21.3,21.3,0,0,1-.68-7.54,20.38,20.38,0,0,1,1.88-7.3,16.43,16.43,0,0,1,4.09-5.4,16.14,16.14,0,0,1,5.87-3.17,18.69,18.69,0,0,1,7.19-.65,19.16,19.16,0,0,1,7,1.95,15.7,15.7,0,0,1,5.2,4.2,16.76,16.76,0,0,1,3,6A20.37,20.37,0,0,1,1077.58,94Zm-8.57-.87q.51-5.13-1.53-8.34a8.57,8.57,0,0,0-13-1.2c-1.73,1.86-2.73,4.5-3,7.92s.24,6.27,1.6,8.42a8.41,8.41,0,0,0,12.86,1.18Q1068.5,98.3,1069,93.11Z"/><path class="cls-21" d="M1132,118.22q-.56-2.82-1.21-5.58c-.43-1.84-.84-3.72-1.21-5.64-8-1.15-12-1.7-20.08-2.73-.87,1.75-1.76,3.47-2.64,5.16s-1.76,3.36-2.62,5c-3.57-.45-5.36-.67-8.93-1.09q3.53-7,6.69-12.82t6.18-11.08q3-5.2,6-9.88t6.05-9.2c3.39.45,5.08.68,8.46,1.15q1.79,5.19,3.38,10.48t3.11,11.12q1.53,5.82,3,12.32t3.07,14.15C1137.52,119,1135.67,118.76,1132,118.22ZM1123,79.69q-2.07,3.25-4.79,8t-5.68,10.24c6.29.82,9.43,1.25,15.71,2.14q-1.38-6.13-2.76-11.46C1124.58,85,1123.75,82.06,1123,79.69Z"/><path class="cls-21" d="M1168.05,77.1c7,1.18,12.25,3.33,15.57,6.38s4.49,7.13,3.56,12.19a14.73,14.73,0,0,1-2.72,6.52,12.24,12.24,0,0,1-5.13,3.83,21,21,0,0,1-7.33,1.42,47.34,47.34,0,0,1-9.4-.73l-4.32-.71c-1,6.36-1.57,9.54-2.61,15.89-3.42-.56-5.13-.83-8.55-1.37l7-44.54a46.58,46.58,0,0,1,7,.21C1163.63,76.45,1166,76.75,1168.05,77.1Zm-.56,7.21q-3.35-.57-5.54-.72c-1,6.15-1.51,9.22-2.52,15.37l4.21.7q6.27,1.05,9.93,0t4.49-5.68a7.11,7.11,0,0,0-.25-3.86,6.4,6.4,0,0,0-2.09-2.78,12.49,12.49,0,0,0-3.59-1.86A28.88,28.88,0,0,0,1167.49,84.31Z"/><path class="cls-21" d="M1197.84,82.88l8.79,1.69-8.79,44.9-8.51-1.64Q1193.59,105.36,1197.84,82.88Z"/><path class="cls-21" d="M1248.15,92.87c7,1.58,12.07,4,15.22,7.26s4.1,7.37,2.89,12.38a14.77,14.77,0,0,1-3.1,6.35,12.29,12.29,0,0,1-5.35,3.53,21.28,21.28,0,0,1-7.42,1,48.31,48.31,0,0,1-9.37-1.27l-4.28-1c-1.4,6.29-2.11,9.44-3.51,15.73-3.39-.76-5.08-1.13-8.48-1.87L1234.29,91a46,46,0,0,1,7,.61C1243.77,92,1246.07,92.39,1248.15,92.87Zm-1,7.15q-3.32-.75-5.5-1c-1.36,6.08-2,9.12-3.39,15.21l4.17.93q6.22,1.41,10,.56c2.48-.57,4.09-2.37,4.81-5.41a7.25,7.25,0,0,0,0-3.88,6.4,6.4,0,0,0-1.94-2.89,12.35,12.35,0,0,0-3.49-2.07A30.44,30.44,0,0,0,1247.18,100Z"/><path class="cls-21" d="M1278.2,148.37a24.08,24.08,0,0,1-5.79-2.3,9.63,9.63,0,0,1-3.27-3,7.35,7.35,0,0,1-1.17-3.76,16,16,0,0,1,.54-4.59q4.79-19.29,9.58-38.57c3.49.32,5.23.49,8.72.83q-4.89,19.15-9.77,38.32a10.57,10.57,0,0,0-.37,2.42,3.8,3.8,0,0,0,.43,1.85,4,4,0,0,0,1.38,1.45,13.7,13.7,0,0,0,2.51,1.22C1279.87,144.71,1279.31,145.93,1278.2,148.37Z"/><path class="cls-21" d="M1307,118.73a22,22,0,0,1,6.63,2.87,11.37,11.37,0,0,1,3.72,3.92,10.19,10.19,0,0,1,1.19,4.83,19.7,19.7,0,0,1-.81,5.57c-2.3,8.05-3.45,12.08-5.74,20.13q-2-.17-5.88-.67a65.71,65.71,0,0,1-8.65-1.82,28.11,28.11,0,0,1-5.57-2.13,13.05,13.05,0,0,1-4-3,9.2,9.2,0,0,1-2-4.08,11.44,11.44,0,0,1,.29-5.32,9.59,9.59,0,0,1,2.45-4.54,9.74,9.74,0,0,1,4.06-2.38,15,15,0,0,1,5.19-.52,28,28,0,0,1,5.73,1,26.33,26.33,0,0,1,2.8.94,27.77,27.77,0,0,1,3,1.42l.36-1.27a10.13,10.13,0,0,0,.37-2.64,5.26,5.26,0,0,0-.6-2.46,5.72,5.72,0,0,0-1.84-2,10.49,10.49,0,0,0-3.37-1.47,33.14,33.14,0,0,0-5.34-1,25.61,25.61,0,0,0-4.12-.15c.26-2.61.39-3.91.64-6.52a34.91,34.91,0,0,1,4.85.2A39.26,39.26,0,0,1,1307,118.73Zm-7.19,28.9a32.67,32.67,0,0,0,5.79,1.19c1-3.4,1.42-5.11,2.38-8.52a17.5,17.5,0,0,0-1.85-.92,19.51,19.51,0,0,0-2.78-1,19.27,19.27,0,0,0-2.78-.56,9.21,9.21,0,0,0-2.68,0,4.69,4.69,0,0,0-2.18.95,4.84,4.84,0,0,0-.5,6.43A10.05,10.05,0,0,0,1299.81,147.63Z"/><path class="cls-21" d="M1359.42,135.07a272.27,272.27,0,0,1-23.13,30.15,35.86,35.86,0,0,1-4.19,4,15.48,15.48,0,0,1-4.11,2.42,11.77,11.77,0,0,1-4.4.78,18.56,18.56,0,0,1-5-.83,19.89,19.89,0,0,1-3.55-1.45,13.91,13.91,0,0,1-2.5-1.62l3.23-5.73a14.24,14.24,0,0,0,4.46,2.26,8,8,0,0,0,5.31,0,12.32,12.32,0,0,0,4.4-3.47q-1.71-8.1-2.83-17.37a180.92,180.92,0,0,1-1.26-19.35c3.52,1,5.28,1.53,8.78,2.57-.06,1.91-.08,4,0,6.25s.13,4.58.26,6.94.3,4.72.52,7.08.48,4.58.78,6.65q3.83-5,7.64-10.75t7.2-11.22C1354.34,133.48,1356,134,1359.42,135.07Z"/><path class="cls-21" d="M1384.69,176.09c-1.8,5.2-4.5,8.52-8.09,10s-8.21,1.25-13.91-.64a39.88,39.88,0,0,1-6-2.5,37.59,37.59,0,0,1-5-3.07l3.52-6a27.27,27.27,0,0,0,4.21,2.83A33,33,0,0,0,1365,179c3.19,1.05,5.67,1.19,7.45.39s3.08-2.42,3.91-4.88l.43-1.25a23.74,23.74,0,0,1-3.51.08,17.3,17.3,0,0,1-4.64-.92,18.55,18.55,0,0,1-5.71-3,13.52,13.52,0,0,1-3.74-4.47,14.28,14.28,0,0,1-1.49-5.85,20.3,20.3,0,0,1,1.06-7.12,19,19,0,0,1,3.29-6.22,14.4,14.4,0,0,1,5.09-4.05,16.49,16.49,0,0,1,6.58-1.54,21.86,21.86,0,0,1,7.75,1.24,49.3,49.3,0,0,1,7.36,3.1c2.25,1.19,4.14,2.28,5.65,3.26Q1389.56,162,1384.69,176.09ZM1367,154.7c-1,3.22-1.07,5.82-.08,7.79a8.25,8.25,0,0,0,5,4.12,13.51,13.51,0,0,0,3.77.7,11.07,11.07,0,0,0,3.15-.26l5.73-17c-.54-.32-1.22-.68-2-1.07a28.77,28.77,0,0,0-3.17-1.23q-4.44-1.49-7.69.48A11.19,11.19,0,0,0,1367,154.7Z"/><path class="cls-21" d="M1422.62,164.34a28.48,28.48,0,0,0-2.53-1.67,22.8,22.8,0,0,0-4-1.84,17,17,0,0,0-2.92-.78,18.79,18.79,0,0,0-2.26-.33l-9.38,26c-3.16-1.14-4.75-1.71-7.92-2.83q5.49-15.49,11-31a48.85,48.85,0,0,1,6.41.57,39.66,39.66,0,0,1,8.06,2.11,20,20,0,0,1,1.85.78c.69.32,1.37.67,2,1s1.32.75,1.93,1.14,1.1.72,1.46,1C1424.86,160.86,1424.11,162,1422.62,164.34Z"/><path class="cls-21" d="M1457.15,188.46a21.15,21.15,0,0,1-4,6.45,16.59,16.59,0,0,1-5.46,4,16.14,16.14,0,0,1-6.52,1.38,20.22,20.22,0,0,1-13.29-5.17,16.31,16.31,0,0,1-3.83-5.41,17,17,0,0,1-1.34-6.65,20.62,20.62,0,0,1,1.4-7.44,20.18,20.18,0,0,1,3.83-6.5,16,16,0,0,1,12.07-5.44,19.29,19.29,0,0,1,7.19,1.4,19.62,19.62,0,0,1,6.28,3.84,15.82,15.82,0,0,1,3.92,5.5,16.54,16.54,0,0,1,1.27,6.66A19.93,19.93,0,0,1,1457.15,188.46Zm-8.13-3.25q1.9-4.78.8-8.45a8.81,8.81,0,0,0-12.37-4.82c-2.2,1.31-3.9,3.56-5.13,6.77s-1.48,6.1-.74,8.55A8.63,8.63,0,0,0,1443.8,192Q1447.1,190.06,1449,185.21Z"/><path class="cls-21" d="M1486.78,218.52q-2.47-.44-6.32-1.41a57.27,57.27,0,0,1-8.15-2.8,20.24,20.24,0,0,1-6.34-4,11.85,11.85,0,0,1-3.12-4.87,12.79,12.79,0,0,1-.44-5.65,25.27,25.27,0,0,1,1.73-6.24c2.94-7.16,4.41-10.74,7.34-17.9,3.21,1.32,4.81,2,8,3.32-2.79,6.67-4.18,10-7,16.69q-2.13,5.12-1.46,8c.44,1.91,2,3.41,4.61,4.53.94.4,2,.78,3,1.15a18.59,18.59,0,0,0,2.49.71l11-25.66,8,3.44Q1493.48,203.19,1486.78,218.52Z"/><path class="cls-21" d="M1509.82,193.33a60.85,60.85,0,0,1,14.83,4.68,21.61,21.61,0,0,1,6.49,4.27,11.29,11.29,0,0,1,3.29,10.65,26.46,26.46,0,0,1-2.07,6.14l-8.3,17.55c-3.07-1.45-4.6-2.17-7.68-3.6l7.65-16.46a24.38,24.38,0,0,0,1.64-4.45,7.9,7.9,0,0,0,.16-3.41,5,5,0,0,0-1.45-2.64,11,11,0,0,0-3.18-2.08,31.56,31.56,0,0,0-3.21-1.25c-1.14-.37-2-.64-2.54-.79L1504,227.31c-3.09-1.4-4.63-2.09-7.73-3.47Q1503,208.58,1509.82,193.33Z"/><path class="cls-21" d="M1561.79,254a58,58,0,0,1-13.76-4.77,23.4,23.4,0,0,1-6.45-4.58,16.75,16.75,0,0,1-3.71-5.81,16,16,0,0,1-.9-6.74,20.45,20.45,0,0,1,2.06-7.32,23.52,23.52,0,0,1,4.22-6.22,15.8,15.8,0,0,1,5.41-3.73,14.43,14.43,0,0,1,6.32-1,18.27,18.27,0,0,1,7,2,17.54,17.54,0,0,1,4.06,2.68,22,22,0,0,1,2.63,2.79c3-5.92,4.46-8.89,7.44-14.81,3.39,1.11,5.08,1.67,8.47,2.81Zm-14.73-25.56q-2.31,4.75-1.21,8.63a9.51,9.51,0,0,0,5.33,6,30.86,30.86,0,0,0,3.2,1.41c.91.33,1.68.58,2.28.74l8.89-17.7a13.83,13.83,0,0,0-2.13-2.58,12.63,12.63,0,0,0-3.35-2.37q-4.24-2.1-7.52-.39C1550.37,223.26,1548.55,225.36,1547.06,228.4Z"/><g id="g2303"><path id="path46" class="cls-22" d="M882.64,943.29q0-14-8-14.35a15,15,0,0,0-6.18,1,9.14,9.14,0,0,0-3.25,1.71v22.22q5.1,3.2,9,3Q882.65,956.31,882.64,943.29Zm6.55.39a19.73,19.73,0,0,1-3.34,11.77,12.29,12.29,0,0,1-10.33,5.46,18.4,18.4,0,0,1-10.27-3.12V978l-5.69-2V931.13a12.64,12.64,0,0,1,3.59-3,24.74,24.74,0,0,1,12.36-3l.08.08a11.36,11.36,0,0,1,10.24,5.45C888.07,934,889.19,938.37,889.19,943.68Z"/><path id="path48" class="cls-22" d="M924,956.93q0,9.51-1.91,13.18T914.8,976a28,28,0,0,1-9.44,1.88l-.94-3.59a45.36,45.36,0,0,0,7.25-1.4,9.62,9.62,0,0,0,5.7-4.29q1.25-2.34,1.25-9V958.1a29.3,29.3,0,0,1-12.25,2.65A11.26,11.26,0,0,1,899,958.1a9,9,0,0,1-3.59-7.33v-23.7l5.7-2V949a7.24,7.24,0,0,0,2.47,5.89,9.29,9.29,0,0,0,6.38,2,16,16,0,0,0,8.38-3V926H924Z"/><path id="path50" class="cls-22" d="M946.23,960.59c-.68.06-1.3.09-1.87.09q-4.85,0-7.53-2.31a8,8,0,0,1-2.69-6.37V929.56h-3.9V926h3.9v-9.51l5.69-2V926h6.4v3.58h-6.4v22.28c0,2.14.58,3.65,1.72,4.54a8.75,8.75,0,0,0,4.68,1.25Z"/><path id="path52" class="cls-22" d="M980.71,960.13H975v-22a10.42,10.42,0,0,0-1.56-5.77,5.71,5.71,0,0,0-5-2.73q-3.91,0-9.8,4.14v26.35H953V907.58l5.69-1.79v23.93a19.86,19.86,0,0,1,11.94-4,9.52,9.52,0,0,1,7.32,3,10.7,10.7,0,0,1,2.81,7.57v23.78Z"/><path id="path54" class="cls-22" d="M1011,942.39a17.39,17.39,0,0,0-2-8.86,8.49,8.49,0,0,0-7.48-4.51q-9.36.54-9.36,13.41a22,22,0,0,0,2,9.85q2.5,5,7.51,5Q1011,957.17,1011,942.39Zm6.24,0a20.24,20.24,0,0,1-3.9,12.71,14,14,0,0,1-11.85,5.69,13.74,13.74,0,0,1-11.7-5.69q-3.82-5.07-3.82-12.71a18.19,18.19,0,0,1,4.13-12.09,14.26,14.26,0,0,1,11.46-5.22,14.5,14.5,0,0,1,11.55,5.22A18.13,18.13,0,0,1,1017.22,942.43Z"/><path id="path56" class="cls-22" d="M1049.87,960.13h-5.69V936.9a7.77,7.77,0,0,0-2.3-6,8.33,8.33,0,0,0-6.13-2.06,13.74,13.74,0,0,0-7.72,2.64v28.62h-5.69V930.81a28,28,0,0,1,9.05-4.67,27.52,27.52,0,0,1,6.86-1,17.92,17.92,0,0,1,3.82.39,11,11,0,0,1,5.46,2.89,7.65,7.65,0,0,1,2.34,5.61Z"/><path id="path1948" class="cls-23" d="M803.31,907.79a48.09,48.09,0,0,0-8.19.7c-7.26,1.28-8.57,4-8.57,8.91v6.53h17.14v2.18H780.11a10.69,10.69,0,0,0-10.7,8.69,31.92,31.92,0,0,0,0,17.42c1.21,5.08,4.12,8.69,9.11,8.69h5.89v-7.83a10.89,10.89,0,0,1,10.71-10.65h17.12a8.64,8.64,0,0,0,8.57-8.71V917.4c0-4.65-3.92-8.13-8.57-8.91A53.91,53.91,0,0,0,803.31,907.79ZM794,913a3.27,3.27,0,1,1-3.22,3.28A3.25,3.25,0,0,1,794,913Z"/><path id="path1950" class="cls-24" d="M823,926.11v7.61a11,11,0,0,1-10.71,10.87H795.12a8.74,8.74,0,0,0-8.57,8.71v16.32c0,4.65,4,7.38,8.57,8.71a28.67,28.67,0,0,0,17.12,0c4.31-1.25,8.57-3.76,8.57-8.71v-6.53H803.69v-2.18h25.69c5,0,6.84-3.47,8.57-8.69s1.71-10.53,0-17.42c-1.23-5-3.58-8.69-8.57-8.69Zm-9.63,41.33a3.27,3.27,0,1,1-3.22,3.26A3.24,3.24,0,0,1,813.32,967.44Z"/><path id="text3004" class="cls-22" d="M1061,920.9h1v-6.26h2.37v-.75h-5.73v.75H1061v6.26m4.25,0h.86v-5.72l1.85,5.72h.95l1.93-5.7v5.7h.93v-7h-1.23l-2.11,6-1.8-6h-1.38v7"/><path id="path1894" class="cls-25" d="M826.85,989.43c0,2.46-10.28,4.45-23,4.45s-23-2-23-4.45,10.29-4.46,23-4.46S826.85,987,826.85,989.43Z"/></g><g id="Layer_2-2" data-name="Layer 2"><g id="Layer_1-2-2" data-name="Layer 1-2"><path class="cls-26" d="M795.57,735.41l23.71-25.34a4.65,4.65,0,0,0,.84-5.34,5.29,5.29,0,0,0-4.85-2.92h-22.4a15.17,15.17,0,0,0-11.12,4.7l-23.37,24.87a5.83,5.83,0,0,0,0,8l23.37,24.88a15.21,15.21,0,0,0,11.1,4.7h22.42a5.27,5.27,0,0,0,4.85-2.92,4.67,4.67,0,0,0-.84-5.34Zm-9.33-25.2a9.08,9.08,0,0,1,6.61-2.8h21l-22.25,23.75-2.74-2.93a18.59,18.59,0,0,0-9.87-5.46h0l-.69-.14a17.8,17.8,0,0,0-3.42-.36Zm-19.73,29.3-3.66-3.83a.45.45,0,0,1-.12-.29.53.53,0,0,1,.12-.29l3.64-3.82a11.29,11.29,0,0,1,8.18-3.43,12.21,12.21,0,0,1,2.34.23l.68.14h0a12.56,12.56,0,0,1,6.66,3.69l3.27,3.48-3.27,3.49a12.52,12.52,0,0,1-6.66,3.69l-.68.14A11.45,11.45,0,0,1,766.51,739.51Zm26.34,23.91a9.12,9.12,0,0,1-6.62-2.8l-11.35-12.1a17.92,17.92,0,0,0,3.43-.37L779,748h0a18.51,18.51,0,0,0,9.87-5.45l2.74-2.95,22.25,23.81Z"/><path class="cls-27" d="M896,741.81a11.62,11.62,0,0,1-2.85,2.07,7.13,7.13,0,0,1-3.26.79,4.31,4.31,0,0,1-3.46-1.35,6,6,0,0,1-1.17-4v-19.3h-8v20.2a14.76,14.76,0,0,0,.65,3.79,10.53,10.53,0,0,0,2,3.73,9.06,9.06,0,0,0,3.3,2.45,11,11,0,0,0,4.46.86,11.37,11.37,0,0,0,5.37-1.22,15.88,15.88,0,0,0,3.59-2.54L897,749a2.09,2.09,0,0,0,2.2,1.6H904V720.07h-8Z"/><path class="cls-27" d="M950,722.7a8.7,8.7,0,0,0-3.37-2.33,12.46,12.46,0,0,0-4.53-.79,14.18,14.18,0,0,0-2.91.33,11.11,11.11,0,0,0-2.75,1,10.06,10.06,0,0,0-2.4,1.8,9.31,9.31,0,0,0-1.4,1.84,9.33,9.33,0,0,0-2.49-3.38,7.45,7.45,0,0,0-4.89-1.61,10.09,10.09,0,0,0-2.56.32,10.36,10.36,0,0,0-2.13.87,10.82,10.82,0,0,0-1.9,1.3c-.38.33-.76.68-1.13,1l-.31-1.47a2.17,2.17,0,0,0-2.22-1.59h-4.81v30.55h8v-22a9.33,9.33,0,0,1,2.3-1.9,5.38,5.38,0,0,1,2.71-.71,4.1,4.1,0,0,1,3.21,1.22,6.12,6.12,0,0,1,1.09,4.07v19.33h8V731.29a6.86,6.86,0,0,1,.38-2.33,4.36,4.36,0,0,1,2.54-2.64,5,5,0,0,1,1.87-.34,4.13,4.13,0,0,1,3.34,1.29,6,6,0,0,1,1.14,4V750.6h8V731.29a15.73,15.73,0,0,0-.7-4.91A10.09,10.09,0,0,0,950,722.7Z"/><path class="cls-27" d="M977.22,741.81a11.76,11.76,0,0,1-2.84,2.07,7.2,7.2,0,0,1-3.27.79,4.34,4.34,0,0,1-3.47-1.35,5.91,5.91,0,0,1-1.16-4v-19.3h-8v19.3a15.71,15.71,0,0,0,.68,4.67,10.66,10.66,0,0,0,2,3.74,9.25,9.25,0,0,0,3.29,2.45,11.26,11.26,0,0,0,4.47.86,11.48,11.48,0,0,0,5.37-1.21,16.1,16.1,0,0,0,3.59-2.54l.35,1.67a2.08,2.08,0,0,0,2.19,1.6h4.79V720.07h-8Z"/><rect class="cls-27" x="991.53" y="706.74" width="7.98" height="43.88"/><path class="cls-27" d="M1013,742.88a4.94,4.94,0,0,0-1.51-1,4.91,4.91,0,0,0-5.32,1,4.53,4.53,0,0,0-1,1.53,5,5,0,0,0,0,3.73,4.5,4.5,0,0,0,2.52,2.51,4.94,4.94,0,0,0,1.9.36,4.79,4.79,0,0,0,1.87-.36,4.57,4.57,0,0,0,1.52-1,4.49,4.49,0,0,0,1-1.51A4.8,4.8,0,0,0,1013,742.88Z"/><rect class="cls-27" x="1019.83" y="720.07" width="8.01" height="30.55"/><path class="cls-27" d="M1027.34,708.28h0a5.08,5.08,0,0,0-5.48-1,4.94,4.94,0,0,0-2.61,2.63,4.91,4.91,0,0,0-.4,2,4.63,4.63,0,0,0,.4,1.9,5,5,0,0,0,1.06,1.56,5.13,5.13,0,0,0,1.58,1.05,4.69,4.69,0,0,0,1.92.4,5.06,5.06,0,0,0,4.61-3,4.35,4.35,0,0,0,.41-1.91,4.61,4.61,0,0,0-.41-2A5.18,5.18,0,0,0,1027.34,708.28Z"/><path class="cls-27" d="M1061.89,728.8a13.37,13.37,0,0,0-7.84-8.1,18,18,0,0,0-12.36,0,13.45,13.45,0,0,0-7.88,8.1,20.16,20.16,0,0,0,0,13,14.42,14.42,0,0,0,3.07,5,13.58,13.58,0,0,0,4.81,3.17,17.87,17.87,0,0,0,12.36,0,13.47,13.47,0,0,0,4.78-3.17,13.93,13.93,0,0,0,3.06-5,18.89,18.89,0,0,0,1.07-6.54A18.6,18.6,0,0,0,1061.89,728.8Zm-7.14,6.54c0,3.1-.57,5.48-1.71,7h0a5.85,5.85,0,0,1-5.14,2.34,6.06,6.06,0,0,1-5.24-2.34c-1.14-1.56-1.72-3.94-1.72-7s.58-5.47,1.72-7.08,2.85-2.34,5.24-2.34a5.76,5.76,0,0,1,5.14,2.34c1.1,1.56,1.71,4,1.71,7.07Z"/><path class="cls-27" d="M870.15,742.09a2.34,2.34,0,0,0-1.45.5c-.36.28-.76.59-1.25.93a7.83,7.83,0,0,1-1.7.88,7.23,7.23,0,0,1-2.61.39,7.11,7.11,0,0,1-1.45-.13l-.15,0a9.43,9.43,0,0,1,1.19-18.79,9.77,9.77,0,0,1,1.08.06,7.3,7.3,0,0,1,1.86.3,9.7,9.7,0,0,1,1.65.72l1.23.74a2.29,2.29,0,0,0,1.3.4,1.74,1.74,0,0,0,1.12-.31,3.46,3.46,0,0,0,.7-.73l2.1-2.89-.25-.25a14.89,14.89,0,0,0-2.12-1.76l-.08-.12h-.09a16,16,0,0,0-2.33-1.28,15.44,15.44,0,0,0-6-1.1,16,16,0,0,0-6.37,1.2l-.18.08a15.46,15.46,0,0,0-1.92,28,11.33,11.33,0,0,0,2.09,1.12,13.61,13.61,0,0,0,5.34,1.06h.42a20.2,20.2,0,0,0,2.8-.23,14.49,14.49,0,0,0,6.12-2.37,13,13,0,0,0,2.67-2.4l.22-.26L871.83,743A1.89,1.89,0,0,0,870.15,742.09Z"/></g></g></g></g></g></svg>